<?xml version="1.0" encoding="UTF-8"?>
<svg version="1.1" xmlns="http://www.w3.org/2000/svg" width="843" height="296">
<path d="M0 0 C0.61875 0.515625 1.2375 1.03125 1.875 1.5625 C1.875 2.2225 1.875 2.8825 1.875 3.5625 C0.66263672 3.69205078 0.66263672 3.69205078 -0.57421875 3.82421875 C-7.55366682 4.49781436 -7.55366682 4.49781436 -13.3125 8.0625 C-16.29513645 12.1764813 -16.68029082 15.54431632 -16.125 20.5625 C-14.57526148 23.23149412 -13.38730121 23.48319963 -10.4375 24.375 C-2.0415306 24.85024355 5.11630871 20.74855085 12.4375 17.125 C14.65489901 16.04547246 16.87234814 14.96604785 19.08984375 13.88671875 C21.35160208 12.77872662 23.61332105 11.67065414 25.875 10.5625 C30.07881678 8.51138643 34.28798029 6.47170433 38.5 4.4375 C39.44045166 3.97674072 40.38090332 3.51598145 41.34985352 3.04125977 C49.91038369 -1.09406307 57.94274704 -4.25579586 67.49609375 -1.75 C73.25643731 0.3042087 76.52681506 2.43559181 79.875 7.5625 C82.60470482 13.40910181 83.00489875 19.61123732 81.22265625 25.84375 C78.95614843 30.9020507 75.45972747 34.48828599 70.875 37.5625 C65.26341426 39.43302858 59.70214398 39.31855958 54.25 37.0625 C53.46625 36.5675 52.6825 36.0725 51.875 35.5625 C51.875 34.5725 51.875 33.5825 51.875 32.5625 C52.52726562 32.53671875 53.17953125 32.5109375 53.8515625 32.484375 C59.58091987 32.1125583 63.39912623 31.47888955 67.875 27.5625 C69.79500247 24.52517167 70.09685181 22.48521566 69.6875 18.9375 C69.61144531 18.16148437 69.53539062 17.38546875 69.45703125 16.5859375 C69.00086066 14.17964343 69.00086066 14.17964343 65.875 12.5625 C58.02423521 11.21249595 52.09665349 13.7550487 45.25 17.3125 C44.27087646 17.80041016 43.29175293 18.28832031 42.28295898 18.79101562 C39.13726266 20.36298991 36.00615333 21.96178213 32.875 23.5625 C29.61458278 25.20706203 26.35132285 26.84579638 23.08642578 28.48144531 C21.03603895 29.5109309 18.98866184 30.54643997 16.94482422 31.58886719 C9.06505151 35.58078086 2.29376168 38.99367243 -6.75 38.9375 C-8.00039062 38.94523437 -9.25078125 38.95296875 -10.5390625 38.9609375 C-16.99177859 38.24396905 -20.90635713 35.35122974 -25.125 30.5625 C-29.36940375 24.67377518 -28.9709526 18.55939766 -28.125 11.5625 C-25.82122243 5.37169033 -21.51419079 1.59601447 -15.9375 -1.75 C-10.48294283 -3.0833362 -5.06820314 -2.33137344 0 0 Z " fill="#148576" transform="translate(156.125,177.4375)"/>
<path d="M0 0 C5.55004849 -0.12422629 11.09927582 -0.21463317 16.65039062 -0.2746582 C18.53595083 -0.29969777 20.42141498 -0.33373999 22.30664062 -0.37719727 C25.02758564 -0.43831786 27.74724027 -0.46631493 30.46875 -0.48828125 C31.30241089 -0.51408768 32.13607178 -0.5398941 32.99499512 -0.56648254 C39.20280851 -0.56941223 43.13944159 1.16503761 48 5 C51.70266286 8.7258045 53.3201719 12.77781328 53.625 18 C53.35822902 23.56776854 50.92867936 28.07132064 47 32 C47.79664063 32.54527344 47.79664063 32.54527344 48.609375 33.1015625 C53.71106697 36.73232869 58.01397477 39.93264595 59.5625 46.3203125 C60.40773827 52.07849818 60.16513031 57.00016703 57 62 C52.68039906 66.68390463 48.50257179 69.79742415 42.06103516 70.31884766 C40.47060283 70.36036611 38.87987634 70.39147696 37.2890625 70.4140625 C36.44330658 70.43342865 35.59755066 70.4527948 34.72616577 70.4727478 C32.02587931 70.53240424 29.32554687 70.5788039 26.625 70.625 C24.81508588 70.6632057 23.00518943 70.70225893 21.1953125 70.7421875 C14.46329003 70.88568593 7.73390942 71.02561447 1 71 C0.25 69 0.25 69 0 66 C0.83314514 64.32067871 0.83314514 64.32067871 1.95336914 62.45898438 C4.51760763 57.52451991 4.56312559 53.13345174 4.49609375 47.65625 C4.49754898 46.68772095 4.49900421 45.71919189 4.50050354 44.72131348 C4.49885178 42.68413265 4.48737215 40.64693839 4.46655273 38.60986328 C4.4375831 35.50889549 4.44596303 32.40963905 4.45898438 29.30859375 C4.45274619 27.32030427 4.44435462 25.33202014 4.43359375 23.34375 C4.43652939 22.42581665 4.43946503 21.5078833 4.44248962 20.56213379 C4.35703923 14.67077175 3.27377748 10.42900981 1 5 C0.62033354 3.34327363 0.26239024 1.67929755 0 0 Z M17 4 C17 12.91 17 21.82 17 31 C20.01125 31.0825 23.0225 31.165 26.125 31.25 C27.06230957 31.28641602 27.99961914 31.32283203 28.96533203 31.36035156 C34.49220328 31.43333687 37.63285684 30.71207169 42 27 C44.96737997 23.43914404 45.47975619 20.42305623 45.28515625 15.921875 C44.66316665 11.72983548 42.56394695 9.50755226 39.5 6.75 C36.26136486 4.4829554 33.84936125 3.87331307 29.98828125 3.90234375 C29.30548096 3.90484131 28.62268066 3.90733887 27.91918945 3.90991211 C27.05898193 3.91901611 26.19877441 3.92812012 25.3125 3.9375 C22.569375 3.958125 19.82625 3.97875 17 4 Z M17 36 C17 45.9 17 55.8 17 66 C21.4859375 66.0928125 21.4859375 66.0928125 26.0625 66.1875 C26.99070557 66.21481201 27.91891113 66.24212402 28.87524414 66.27026367 C35.89067864 66.33997576 40.59826731 65.24509795 45.875 60.3125 C48.37817214 56.41049637 49.29494334 53.61184131 49 49 C47.30779132 43.12704048 44.87524 40.38281959 40 37 C37.10600775 36.04904274 34.4875522 35.88184086 31.453125 35.90234375 C30.69161133 35.90484131 29.93009766 35.90733887 29.14550781 35.90991211 C28.18999023 35.91901611 27.23447266 35.92812012 26.25 35.9375 C23.1975 35.958125 20.145 35.97875 17 36 Z " fill="#1EB0A7" transform="translate(462,106)"/>
<path d="M0 0 C5.61 0 11.22 0 17 0 C17.33 12.54 17.66 25.08 18 38 C21.96 35.03 25.92 32.06 30 29 C30.66 29 31.32 29 32 29 C32.03867187 27.93072266 32.03867187 27.93072266 32.078125 26.83984375 C32.51074637 19.53444191 33.33139231 14.37918662 38.83203125 9.3125 C45.70696027 3.84410522 51.94553692 2.62247886 60.5625 2.5625 C61.81836914 2.51319336 61.81836914 2.51319336 63.09960938 2.46289062 C67.53027438 2.42430209 69.43070196 2.57554868 73.0859375 5.30078125 C75 8 75 8 75.0625 11.625 C74 15 74 15 72.375 17 C68.91616747 18.45635054 66.58701629 17.91305869 63 17 C61.0625 15.8125 61.0625 15.8125 60 14 C59.8125 10.8125 59.8125 10.8125 60 8 C53.46011052 7.38560537 48.58014992 7.87798757 42.91796875 11.35546875 C39.71504668 14.10176242 38.51949989 17.10215246 37 21 C40.96 21 44.92 21 49 21 C49 22.32 49 23.64 49 25 C47.1746875 25.680625 47.1746875 25.680625 45.3125 26.375 C38.42455349 29.38985199 32.79964649 34.30291382 27 39 C27.44988281 39.36609375 27.89976562 39.7321875 28.36328125 40.109375 C33.88099845 44.75354579 38.677242 49.8769713 43.484375 55.23046875 C46.70614333 58.77741556 49.80382658 62.01803378 53.75 64.75 C54.8225 65.4925 55.895 66.235 57 67 C56.505 68.98 56.505 68.98 56 71 C49.07 71 42.14 71 35 71 C33.875 65.375 33.875 65.375 36 62 C33.10349478 57.5469616 30.01187281 53.31612727 26.75 49.125 C26.29109375 48.53203125 25.8321875 47.9390625 25.359375 47.328125 C24.24136829 45.884033 23.12093832 44.4418176 22 43 C19.91507545 44.11900162 19.91507545 44.11900162 18 46 C16.67585453 52.57204554 17.51810627 58.60805893 21.22265625 64.18359375 C22 66 22 66 21 71 C14.4 71 7.8 71 1 71 C-0.10474839 65.47625807 -0.10474839 65.47625807 1.90649414 62.33398438 C4.55674722 57.45393152 4.5629736 53.12103187 4.49609375 47.65625 C4.49754898 46.68772095 4.49900421 45.71919189 4.50050354 44.72131348 C4.49885178 42.68413265 4.48737215 40.64693839 4.46655273 38.60986328 C4.4375831 35.50889549 4.44596303 32.40963905 4.45898438 29.30859375 C4.45274619 27.32030427 4.44435462 25.33202014 4.43359375 23.34375 C4.43652939 22.42581665 4.43946503 21.5078833 4.44248962 20.56213379 C4.35703923 14.67077175 3.27377748 10.42900981 1 5 C0.67 3.35 0.34 1.7 0 0 Z " fill="#1A8B7D" transform="translate(328,106)"/>
<path d="M0 0 C-0.33 3.3 -0.66 6.6 -1 10 C-5.25566547 11.16063604 -8.6835078 10.76173392 -13 10 C-12.36771484 10.92232422 -12.36771484 10.92232422 -11.72265625 11.86328125 C-11.17480469 12.67152344 -10.62695312 13.47976562 -10.0625 14.3125 C-9.51722656 15.11300781 -8.97195313 15.91351563 -8.41015625 16.73828125 C-5.76205284 20.98551636 -5.40574826 25.1149011 -6 30 C-7.66062075 36.0029196 -11.09311868 39.72891999 -16.359375 42.9375 C-21.98660288 45.20171003 -28.19335236 45.01223357 -33.859375 42.96875 C-34.91898438 42.48921875 -34.91898438 42.48921875 -36 42 C-36 43.65 -36 45.3 -36 47 C-35.410979 47.04487549 -34.82195801 47.08975098 -34.21508789 47.13598633 C-31.49649837 47.34981994 -28.77964505 47.58105974 -26.0625 47.8125 C-25.13630859 47.88275391 -24.21011719 47.95300781 -23.25585938 48.02539062 C-15.89606621 48.67098652 -8.92815042 49.63255923 -3.0625 54.375 C-0.04504735 58.21539428 0.97322374 60.52730561 1.0625 65.4375 C-0.35656359 70.19553674 -2.87240789 72.37556643 -7 75 C-11.51515362 77.37045565 -15.76558261 77.34798543 -20.75 77.3125 C-21.55405273 77.30758545 -22.35810547 77.3026709 -23.18652344 77.29760742 C-30.49566266 77.15305548 -36.37463337 76.07522808 -42.4375 71.8125 C-45.56881648 68.37568923 -46.61854897 65.59601974 -47 61 C-46.708776 59.32546201 -46.38929201 57.65449105 -46 56 C-46.66 55.34 -47.32 54.68 -48 54 C-48.52815547 50.12685992 -48.17573689 48.31381588 -46.25 44.875 C-44.29452433 42.37633665 -42.32199605 40.15613919 -40 38 C-40.804375 37.05125 -41.60875 36.1025 -42.4375 35.125 C-46.02140797 30.8978265 -46.29001233 28.0308571 -46.2109375 22.53515625 C-45.79557595 17.54312571 -43.73585025 14.4583692 -40.0625 11.25 C-35.22231633 7.69394669 -32.51960343 6.73638722 -26.4375 6.8125 C-24.73400391 6.82216797 -24.73400391 6.82216797 -22.99609375 6.83203125 C-20 7 -20 7 -17 8 C-16.2575 7.05125 -15.515 6.1025 -14.75 5.125 C-10.23722369 -0.2048528 -6.7695076 -0.22565025 0 0 Z M-34 13 C-36.28064675 17.56129349 -35.63085267 23.76115872 -34.28125 28.55078125 C-32.07253815 33.84990847 -29.30487939 38.3475603 -24 41 C-20.7321149 41 -19.43850852 40.18182341 -17 38 C-14.70956134 32.79543517 -14.6227328 27.6428994 -16.109375 22.2109375 C-18.21658937 16.97987026 -21.10642708 13.04339732 -26.0625 10.3125 C-29.75247099 9.91994989 -31.13883023 10.71106419 -34 13 Z M-39 59 C-38.42668184 63.30314211 -38.42668184 63.30314211 -35.125 66.25 C-30.32692203 68.93692366 -26.43628507 69.18268909 -21.0625 69.1875 C-20.34642578 69.19974609 -19.63035156 69.21199219 -18.89257812 69.22460938 C-15.10026892 69.23515333 -12.21400906 69.12309215 -9 67 C-9.18828772 64.55519921 -9.18828772 64.55519921 -10 62 C-15.3712846 57.86824261 -23.96938514 58.86974376 -30.4375 58.9375 C-31.67790039 58.94426758 -31.67790039 58.94426758 -32.94335938 58.95117188 C-34.96227146 58.96284189 -36.98114574 58.98077282 -39 59 Z " fill="#2AE4E2" transform="translate(701,120)"/>
<path d="M0 0 C5.61 0 11.22 0 17 0 C17 23.1 17 46.2 17 70 C13.37 69.67 9.74 69.34 6 69 C4.10797448 69.47300638 2.21530632 69.94766639 0.34375 70.49609375 C-9.20085606 72.54818405 -17.98353642 71.66867111 -26.46484375 66.8515625 C-30.21700977 64.11115157 -32.73238938 61.02949514 -35 57 C-35.37125 56.39929688 -35.7425 55.79859375 -36.125 55.1796875 C-38.34990865 49.63728113 -37.82230239 42.26318733 -36.3828125 36.55078125 C-33.46704509 29.98385377 -27.86579875 25.81305635 -21.9375 22.0625 C-15.09705847 19.51905638 -5.25627647 19.62537207 1.4375 22.5 C2.283125 22.995 3.12875 23.49 4 24 C4.33216812 17.19670485 4.28758339 12.04915344 1 6 C0.505 5.505 0.505 5.505 0 5 C0 3.35 0 1.7 0 0 Z M-23 30 C-26.42690873 37.44980158 -25.0391922 45.75444864 -22.3125 53.25 C-19.76799257 59.08193674 -16.29009809 63.47326794 -11 67 C-7.60767777 67.54622138 -4.39420164 67.53136064 -1 67 C2.8830004 64.16864554 4.48242357 61.4735514 6 57 C7.14173269 48.35734903 5.44102047 40.79459725 0.3515625 33.703125 C-3.67058576 28.89059826 -7.04181829 25.43028098 -13.4375 24.5 C-18.08078183 25.15168868 -19.85214931 26.55932599 -23 30 Z " fill="#23D1CD" transform="translate(628,106)"/>
<path d="M0 0 C1 1 1 1 1.1328125 3.03125 C1.13023437 3.8459375 1.12765625 4.660625 1.125 5.5 C1.12886719 6.72203125 1.12886719 6.72203125 1.1328125 7.96875 C1 10 1 10 0 11 C-2.75 11.4375 -2.75 11.4375 -6 11 C-7.28901778 9.549855 -8.57317961 8.08954122 -9.734375 6.53515625 C-12.27880303 3.44885929 -15.29618229 2.21712367 -19.20703125 1.71875 C-23.98061946 1.52875644 -27.130573 1.95136055 -31 5 C-33.30301986 6.85350695 -33.30301986 6.85350695 -33.125 9.75 C-30.30146935 17.90686633 -18.46872351 22.37105308 -11.33398438 26.41210938 C-4.07243765 30.64477565 3.08962821 35.50015802 5.6875 43.89453125 C6.40179027 48.70706193 5.29890838 52.85066627 2.80078125 56.984375 C-1.34599043 62.30133156 -6.41635321 65.06513562 -12.875 66.75 C-24.3798935 67.67039148 -35.71594862 66.67448397 -46 61 C-47 60 -47 60 -47.09765625 57.71484375 C-47.08605469 56.79832031 -47.07445312 55.88179687 -47.0625 54.9375 C-47.05347656 54.01839844 -47.04445313 53.09929687 -47.03515625 52.15234375 C-47.02355469 51.44207031 -47.01195312 50.73179687 -47 50 C-43.8125 49.625 -43.8125 49.625 -40 50 C-37.4375 52.8125 -37.4375 52.8125 -36.22265625 54.46875 C-32.98456558 58.52412234 -28.50506881 59.21934246 -23.625 59.8125 C-17.93732485 60.19219494 -12.9607624 59.8504765 -8 56.75 C-6.3301797 53.82781448 -6.37088625 52.33430287 -7 49 C-11.48861317 40.61765011 -21.09598113 36.5660726 -29.04003906 32.11035156 C-35.93879025 28.20209043 -42.34280769 24.31438461 -46 17 C-46.2300648 12.08861666 -45.53675106 8.07840759 -42.4375 4.1875 C-31.1761862 -7.47987079 -13.83279567 -5.41567 0 0 Z " fill="#197E6F" transform="translate(318,110)"/>
<path d="M0 0 C1.32 0.33 2.64 0.66 4 1 C3.7834375 1.67804688 3.566875 2.35609375 3.34375 3.0546875 C0.79218435 11.58353194 -0.71057768 19.7061796 2.97265625 28.125 C7.4797849 36.35093822 14.26683764 40.08894588 23 43 C30.26894676 43.80037139 35.6736261 42.58141092 42 39 C42.64066406 38.649375 43.28132813 38.29875 43.94140625 37.9375 C49.5149715 34.47057388 52.73807843 29.19309383 54.6171875 22.94921875 C55.8828484 16.50468007 54.72561941 11.30194241 52.65625 5.19921875 C52 3 52 3 52 0 C54.296875 0.13671875 54.296875 0.13671875 57 1 C58.765625 3.58203125 58.765625 3.58203125 60.25 6.8125 C60.75015625 7.87082031 61.2503125 8.92914063 61.765625 10.01953125 C65.14593569 18.18148396 65.50084047 27.9734065 62.4375 36.3125 C57.45924492 46.85672082 50.06827218 53.30151416 39.51171875 58.140625 C30.73384947 61.14393953 21.53472615 60.3677568 13 57 C3.19805101 51.62831044 -4.08608697 43.91657387 -7.5859375 33.20703125 C-9.6952972 21.96374608 -7.94766672 11.91497985 -1.75 2.375 C-1.1725 1.59125 -0.595 0.8075 0 0 Z " fill="#19AAA0" transform="translate(155,111)"/>
<path d="M0 0 C4.721198 4.36094595 8.06785726 8.86260541 10 15 C10 16.98 10 18.96 10 21 C-3.2 21 -16.4 21 -30 21 C-25.80962793 32.22562691 -25.80962793 32.22562691 -18.1875 40.375 C-13.39123128 41.74536249 -9.53845757 41.82051071 -5.1875 39.5 C-2.28867932 36.18706208 -1.3259776 33.18729769 0 29 C2.64 29 5.28 29 8 29 C7.10403939 35.5212323 3.25629057 39.3371109 -1.71484375 43.40234375 C-8.09533129 47.3255757 -15.79917586 46.77995798 -23 46 C-30.85305444 43.76820489 -35.9917121 37.91084121 -40 31 C-42.82895353 24.12968428 -42.66999389 17.15112766 -39.90625 10.28125 C-35.87555356 2.84685435 -30.17470957 -1.93008977 -22.0625 -4.4375 C-14.3231336 -5.92998219 -6.42348821 -4.63770518 0 0 Z M-26.9375 2.9375 C-29.51198555 6.76022097 -30.60190558 10.41243573 -31 15 C-29.92970871 16.29545448 -29.92970871 16.29545448 -27.40795898 16.11352539 C-26.28204346 16.10828857 -25.15612793 16.10305176 -23.99609375 16.09765625 C-22.17368164 16.09282227 -22.17368164 16.09282227 -20.31445312 16.08789062 C-19.03505859 16.07951172 -17.75566406 16.07113281 -16.4375 16.0625 C-14.51260742 16.05573242 -14.51260742 16.05573242 -12.54882812 16.04882812 C-9.36583978 16.03699545 -6.18294238 16.02051068 -3 16 C-3.69441635 11.96555346 -4.54694003 9.87415846 -7.3125 6.8125 C-7.90675781 6.13832031 -8.50101563 5.46414062 -9.11328125 4.76953125 C-13.03565858 1.09077984 -16.5639411 0.47742753 -21.8125 0.6328125 C-24.26979315 0.89354174 -24.26979315 0.89354174 -26.9375 2.9375 Z " fill="#2BEFF0" transform="translate(743,131)"/>
<path d="M0 0 C4.20140048 3.58297003 6.63367204 8.15030928 7.3359375 13.61328125 C7.44254674 20.97997988 6.4964431 26.3605206 1.28125 31.7890625 C-3.82363285 36.35317386 -7.68912717 37.2741486 -14.48046875 37.234375 C-17.7980631 36.92576157 -20.2030576 35.76648994 -23 34 C-23 33.01 -23 32.02 -23 31 C-22.34773438 30.97421875 -21.69546875 30.9484375 -21.0234375 30.921875 C-15.29408013 30.5500583 -11.47587377 29.91638955 -7 26 C-5.07999753 22.96267167 -4.77814819 20.92271566 -5.1875 17.375 C-5.26355469 16.59898437 -5.33960938 15.82296875 -5.41796875 15.0234375 C-5.87413934 12.61714343 -5.87413934 12.61714343 -9 11 C-16.07516476 9.74600625 -21.18798356 11.73532907 -27.4375 14.88671875 C-30.89434819 16.38855066 -33.29660538 16.41148829 -37 16 C-37 16.66 -37 17.32 -37 18 C-37.99 18 -38.98 18 -40 18 C-41.09898702 14.70303895 -40.87124444 13.59505097 -40.0625 10.3125 C-39.86785156 9.50425781 -39.67320312 8.69601563 -39.47265625 7.86328125 C-39.23869141 6.94095703 -39.23869141 6.94095703 -39 6 C-38.34 6 -37.68 6 -37 6 C-37 5.01 -37 4.02 -37 3 C-24.19387874 -3.06727626 -13.19035528 -7.49452005 0 0 Z " fill="#1EF7F6" transform="translate(231,179)"/>
<path d="M0 0 C2.62561109 -0.08074203 5.24875676 -0.1403623 7.875 -0.1875 C8.99455078 -0.22520508 8.99455078 -0.22520508 10.13671875 -0.26367188 C12.3046875 -0.29296875 12.3046875 -0.29296875 16 0 C16.66 0.99 17.32 1.98 18 3 C18.969375 2.505 19.93875 2.01 20.9375 1.5 C25.2057001 -0.33419597 29.4093499 -0.68503887 34 0 C34.99 0.66 35.98 1.32 37 2 C36.34 5.3 35.68 8.6 35 12 C33.659375 11.484375 32.31875 10.96875 30.9375 10.4375 C26.4446822 8.92569875 23.57465679 8.8563358 19 10 C16.31383149 12.68616851 17.76487804 20.57399724 17.75 24.1875 C17.729375 25.42048828 17.70875 26.65347656 17.6875 27.92382812 C17.68234375 29.11814453 17.6771875 30.31246094 17.671875 31.54296875 C17.6625293 32.63633545 17.65318359 33.72970215 17.64355469 34.85620117 C18.05247611 38.46283211 19.26570434 40.83760809 21 44 C21.6875 46.875 21.6875 46.875 22 49 C19.22276075 49.78688445 16.77389923 50.11949924 13.890625 50.09765625 C13.13652344 50.09443359 12.38242187 50.09121094 11.60546875 50.08789062 C10.82816406 50.07951172 10.05085937 50.07113281 9.25 50.0625 C8.45722656 50.05798828 7.66445313 50.05347656 6.84765625 50.04882812 C4.89840492 50.03708565 2.94919262 50.01915146 1 50 C-0.25 48.4375 -0.25 48.4375 -1 46 C-0.3915625 45.05125 0.216875 44.1025 0.84375 43.125 C4.33373947 37.61387184 3.57833836 31.30623826 3.5 25 C3.51546875 23.75476563 3.5309375 22.50953125 3.546875 21.2265625 C3.51649635 14.10276852 2.91735038 9.90813499 -1 4 C-0.75 1.5625 -0.75 1.5625 0 0 Z " fill="#1AC4BD" transform="translate(527,127)"/>
<path d="M0 0 C5.28 0 10.56 0 16 0 C16.0093457 1.71509766 16.01869141 3.43019531 16.02832031 5.19726562 C16.06396402 10.88915096 16.11783522 16.58067247 16.18390274 22.27228546 C16.22326903 25.72027886 16.2555099 29.16802104 16.27099609 32.61621094 C16.28915662 36.58821815 16.33915575 40.55952946 16.390625 44.53125 C16.39246796 46.37233337 16.39246796 46.37233337 16.39434814 48.25061035 C16.51655445 55.44343124 17.57115835 59.73465131 21 66 C20.67 67.65 20.34 69.3 20 71 C13.73 71 7.46 71 1 71 C0 66 0 66 1.375 63.4375 C1.91125 62.633125 2.4475 61.82875 3 61 C3.87849808 58.20006498 4.13380133 55.65118331 4.16113281 52.72558594 C4.17554413 51.47343292 4.17554413 51.47343292 4.19024658 50.19598389 C4.1966214 48.85373749 4.1966214 48.85373749 4.203125 47.484375 C4.20882507 46.55457825 4.21452515 45.62478149 4.22039795 44.66680908 C4.22983571 42.69992201 4.23637707 40.73301921 4.24023438 38.76611328 C4.24991977 35.77478011 4.28094652 32.78414019 4.3125 29.79296875 C4.31903269 27.87760823 4.32428212 25.96224281 4.328125 24.046875 C4.3404718 23.16014099 4.3528186 22.27340698 4.36553955 21.35980225 C4.34799136 16.40497025 3.79602529 12.51406022 1.74237061 7.98272705 C1 6 1 6 0 0 Z " fill="#1CA197" transform="translate(411,106)"/>
<path d="M0 0 C5.28 0 10.56 0 16 0 C16.0093457 1.71509766 16.01869141 3.43019531 16.02832031 5.19726562 C16.06396402 10.88915096 16.11783522 16.58067247 16.18390274 22.27228546 C16.22326903 25.72027886 16.2555099 29.16802104 16.27099609 32.61621094 C16.28915662 36.58821815 16.33915575 40.55952946 16.390625 44.53125 C16.39246796 46.37233337 16.39246796 46.37233337 16.39434814 48.25061035 C16.51655445 55.44343124 17.57115835 59.73465131 21 66 C20.67 67.65 20.34 69.3 20 71 C13.73 71 7.46 71 1 71 C-0.10474839 65.47625807 -0.10474839 65.47625807 1.90649414 62.33398438 C4.55674722 57.45393152 4.5629736 53.12103187 4.49609375 47.65625 C4.49754898 46.68772095 4.49900421 45.71919189 4.50050354 44.72131348 C4.49885178 42.68413265 4.48737215 40.64693839 4.46655273 38.60986328 C4.4375831 35.50889549 4.44596303 32.40963905 4.45898438 29.30859375 C4.45274619 27.32030427 4.44435462 25.33202014 4.43359375 23.34375 C4.43652939 22.42581665 4.43946503 21.5078833 4.44248962 20.56213379 C4.35703923 14.67077175 3.27377748 10.42900981 1 5 C0.67 3.35 0.34 1.7 0 0 Z " fill="#1BA99F" transform="translate(436,106)"/>
<path d="M0 0 C4.62 0 9.24 0 14 0 C14 20.46 14 40.92 14 62 C12.02 61.01 10.04 60.02 8 59 C8 58.34 8 57.68 8 57 C7.34 57 6.68 57 6 57 C6 51.39 6 45.78 6 40 C5.34 40 4.68 40 4 40 C4 39.01 4 38.02 4 37 C3.38125 36.773125 2.7625 36.54625 2.125 36.3125 C-0.64848291 34.59946644 -0.85683637 33.00080453 -2 30 C-3.31387169 28.64748503 -4.64426252 27.31054623 -6 26 C-6 25.34 -6 24.68 -6 24 C-2.7 24 0.6 24 4 24 C3.71815415 21.39442509 3.42497289 18.79099602 3.125 16.1875 C3.04636719 15.44951172 2.96773437 14.71152344 2.88671875 13.95117188 C2.45539714 10.28493819 2.0803217 8.12048255 0 5 C0 3.35 0 1.7 0 0 Z " fill="#1BE0DC" transform="translate(629,107)"/>
<path d="M0 0 C2.296875 0.13671875 2.296875 0.13671875 5 1 C6.765625 3.58203125 6.765625 3.58203125 8.25 6.8125 C8.75015625 7.87082031 9.2503125 8.92914063 9.765625 10.01953125 C13.14593569 18.18148396 13.50084047 27.9734065 10.4375 36.3125 C5.42950399 46.91971378 -1.97068798 53.20455298 -12.50390625 58.18359375 C-15.25645783 59.08388057 -17.42610154 59.20197063 -20.3125 59.125 C-21.19550781 59.10695312 -22.07851562 59.08890625 -22.98828125 59.0703125 C-23.65214844 59.04710937 -24.31601563 59.02390625 -25 59 C-21.66688525 57.2175082 -18.75519057 56.51207144 -15 56 C-13.99782936 52.41672247 -13.99782936 52.41672247 -15 49 C-14.5625 46.875 -14.5625 46.875 -14 45 C-14.45375 45.495 -14.9075 45.99 -15.375 46.5 C-17 48 -17 48 -19 48 C-19.495 46.515 -19.495 46.515 -20 45 C-18.68854927 42.37709855 -17.56534346 42.25907748 -14.875 41.1875 C-6.40317075 37.50292664 -1.73864048 33.63595053 2 25 C4.12204059 17.94891576 2.96285696 12.00157352 0.65625 5.19921875 C0 3 0 3 0 0 Z " fill="#21E0DC" transform="translate(207,111)"/>
<path d="M0 0 C2.31243792 -0.02685412 4.6249627 -0.04632841 6.9375 -0.0625 C8.22527344 -0.07410156 9.51304687 -0.08570312 10.83984375 -0.09765625 C14 0 14 0 15 1 C15.12322369 3.73972418 15.18614408 6.45810901 15.2109375 9.19921875 C15.23902199 10.90039998 15.26768655 12.60157172 15.296875 14.30273438 C15.33803761 16.99079972 15.37491331 19.67869083 15.40136719 22.36694336 C15.42908372 24.95724468 15.47497327 27.54673338 15.5234375 30.13671875 C15.52669037 30.9338176 15.52994324 31.73091644 15.53329468 32.5521698 C15.64130145 37.48821048 16.56966346 40.60109904 19 45 C18.6875 47.875 18.6875 47.875 18 50 C15.18743719 50.02684312 12.37512759 50.04676188 9.5625 50.0625 C8.76005859 50.07087891 7.95761719 50.07925781 7.13085938 50.08789062 C5.08704779 50.0965143 3.04316098 50.0522815 1 50 C0 49 0 49 -0.25 46.9375 C0 44 0 44 1.4921875 40.5 C3.46359313 35.37188696 3.44199768 30.50047827 3.375 25.0625 C3.38660156 24.12470703 3.39820313 23.18691406 3.41015625 22.22070312 C3.38690199 16.64355695 2.62492509 12.15917126 0.65478516 6.94702148 C-0.14400692 4.57179151 -0.2406739 2.48696366 0 0 Z " fill="#1AD0CB" transform="translate(568,127)"/>
<path d="M0 0 C5.60668472 2.80334236 9.03786355 6.45033841 11.25 12.3125 C12.99306258 20.88255768 11.92591291 28.00156545 7.5 35.5625 C6 37 6 37 3 37 C3.165 36.01 3.33 35.02 3.5 34 C4.41774915 27.31932606 4.70307929 21.98189731 1 16 C-0.98959408 13.58660109 -0.98959408 13.58660109 -4.875 13.625 C-8.05756788 13.69431182 -8.80924156 13.85326274 -11.4375 15.875 C-14.0254302 19.39458507 -14.13571549 21.46736925 -14.125 25.8125 C-14.12886719 27.36904297 -14.12886719 27.36904297 -14.1328125 28.95703125 C-14.01076175 31.75342942 -13.63363355 34.27939879 -13 37 C-14.75 36.875 -14.75 36.875 -17 36 C-22.24262531 29.25948174 -22.61152873 23.31909833 -22 15 C-20.77248894 8.41198194 -17.41008698 4.76750636 -12 1 C-8.28795513 -0.85602244 -4.0512695 -0.44875601 0 0 Z " fill="#42DBD9" transform="translate(188,86)"/>
<path d="M0 0 C4.62 0 9.24 0 14 0 C14.0093457 1.0737085 14.01869141 2.14741699 14.02832031 3.25366211 C14.0684839 7.27408878 14.1343129 11.29377125 14.20751953 15.3137207 C14.23557737 17.04669566 14.25686675 18.77979497 14.27099609 20.51293945 C14.05659969 32.89966643 14.05659969 32.89966643 18.24902344 44.31079102 C19 46 19 46 18 50 C12.06 50 6.12 50 0 50 C-1.139168 44.30416 -0.47617745 43.85067244 2 39 C2.45526873 35.70630449 2.45526873 35.70630449 2.3984375 32.24609375 C2.40423828 30.34633789 2.40423828 30.34633789 2.41015625 28.40820312 C2.39855469 27.09787109 2.38695312 25.78753906 2.375 24.4375 C2.38660156 23.12330078 2.39820313 21.80910156 2.41015625 20.45507812 C2.40628906 19.18986328 2.40242188 17.92464844 2.3984375 16.62109375 C2.39505371 15.4705249 2.39166992 14.31995605 2.38818359 13.13452148 C2.21178633 9.9453021 2.21178633 9.9453021 0.41259766 7.39868164 C-1 5 -1 5 0 0 Z " fill="#169E90" transform="translate(388,127)"/>
<path d="M0 0 C0 0.66 0 1.32 0 2 C-0.66 2 -1.32 2 -2 2 C-2.33 5.96 -2.66 9.92 -3 14 C-2.01 14 -1.02 14 0 14 C0 13.34 0 12.68 0 12 C1.65 12 3.3 12 5 12 C1.66698168 14.70843226 -1.94670679 16.61078963 -5.77734375 18.50390625 C-6.42570694 18.82785873 -7.07407013 19.15181122 -7.74208069 19.48558044 C-9.10860171 20.16733572 -10.47609015 20.84715493 -11.84448242 21.52514648 C-13.92923731 22.5584048 -16.01072736 23.59801419 -18.09179688 24.63867188 C-19.42429126 25.30246067 -20.75696762 25.96588433 -22.08984375 26.62890625 C-22.70770248 26.93727921 -23.32556122 27.24565216 -23.96214294 27.56336975 C-29.57217063 30.33791444 -33.66855561 32.29448579 -40 32 C-40.33 31.01 -40.66 30.02 -41 29 C-40.34 28.67 -39.68 28.34 -39 28 C-38.34444881 25.47266765 -38.34444881 25.47266765 -38 23 C-39.65 23 -41.3 23 -43 23 C-43 21.68 -43 20.36 -43 19 C-42.2471875 18.731875 -41.494375 18.46375 -40.71875 18.1875 C-31.4456895 14.76637088 -22.77567241 10.5183668 -14 6 C-11.71121362 4.82745855 -9.41910643 3.6621641 -7.125 2.5 C-6.17882812 2.0153125 -5.23265625 1.530625 -4.2578125 1.03125 C-2 0 -2 0 0 0 Z " fill="#1DB9B0" transform="translate(194,183)"/>
<path d="M0 0 C2.38370909 2.38370909 2.29588602 2.9936599 2.3125 6.25 C2.23737929 10.4772474 1.23998949 13.36001708 -1 17 C-1.33 17 -1.66 17 -2 17 C-2.33 18.65 -2.66 20.3 -3 22 C-2.41347656 22.11214844 -1.82695312 22.22429687 -1.22265625 22.33984375 C3.23337558 23.66334002 6.69279994 26.93063584 9.15234375 30.82421875 C11.51251861 36.18627501 11.38987094 41.364877 10 47 C7.73515448 51.36791636 5.10982076 54.29353267 1 57 C-1.75 57.8125 -1.75 57.8125 -4 58 C-5 57 -5 57 -5.25 54.625 C-5 52 -5 52 -3.6875 50.1875 C-2 49 -2 49 1 49 C1 45.7 1 42.4 1 39 C0.34 38.67 -0.32 38.34 -1 38 C-1.433125 36.906875 -1.86625 35.81375 -2.3125 34.6875 C-3.77598667 30.99860835 -5.8357517 29.39456628 -9 27 C-9 26.01 -9 25.02 -9 24 C-10.65 23.67 -12.3 23.34 -14 23 C-11 21 -11 21 -7 21 C-6.67 19.02 -6.34 17.04 -6 15 C-5.34 15 -4.68 15 -4 15 C-4 14.01 -4 13.02 -4 12 C-3.01 12 -2.02 12 -1 12 C-1.33 8.37 -1.66 4.74 -2 1 C-1.34 0.67 -0.68 0.34 0 0 Z " fill="#1BBCB4" transform="translate(511,117)"/>
<path d="M0 0 C5.61 0 11.22 0 17 0 C17 23.1 17 46.2 17 70 C13.37 69.67 9.74 69.34 6 69 C4.11521734 69.47119566 2.22905355 69.94390151 0.37109375 70.51171875 C-6.73737925 71.97557233 -15.42071036 72.17013573 -22 69 C-21.34 67.68 -20.68 66.36 -20 65 C-20.66 64.34 -21.32 63.68 -22 63 C-21.34 62.01 -20.68 61.02 -20 60 C-19.67 59.34 -19.34 58.68 -19 58 C-17.79557292 59.49739583 -16.59114583 60.99479167 -15.38671875 62.4921875 C-13.3304939 64.72797001 -11.67357616 65.93463652 -8.625 66.23046875 C-7.75875 66.21628906 -6.8925 66.20210938 -6 66.1875 C-5.13375 66.18105469 -4.2675 66.17460937 -3.375 66.16796875 C-0.85072535 66.08830437 -0.85072535 66.08830437 2 65 C3.18391223 62.62374655 3.18391223 62.62374655 4 60 C4.33 59.01 4.66 58.02 5 57 C5.46398843 50.32072467 4.93139323 44.39774008 3 38 C3.66 38 4.32 38 5 38 C5 38.99 5 39.98 5 41 C5.66 41 6.32 41 7 41 C7 46.61 7 52.22 7 58 C7.66 58 8.32 58 9 58 C10.02104551 58.97850195 11.0206121 59.97980427 12 61 C12.99 61.495 12.99 61.495 14 62 C14.33 41.87 14.66 21.74 15 1 C10.38 1 5.76 1 1 1 C0.67 2.32 0.34 3.64 0 5 C0 3.35 0 1.7 0 0 Z " fill="#35D4D2" transform="translate(628,106)"/>
<path d="M0 0 C1.25586914 -0.04930664 1.25586914 -0.04930664 2.53710938 -0.09960938 C6.96777438 -0.13819791 8.86820196 0.01304868 12.5234375 2.73828125 C14.4375 5.4375 14.4375 5.4375 14.5 9.0625 C13.4375 12.4375 13.4375 12.4375 11.8125 14.4375 C8.35366747 15.89385054 6.02451629 15.35055869 2.4375 14.4375 C0.5 13.25 0.5 13.25 -0.5625 11.4375 C-0.75 8.25 -0.75 8.25 -0.5625 5.4375 C-7.10238948 4.82310537 -11.98235008 5.31548757 -17.64453125 8.79296875 C-20.84745332 11.53926242 -22.04300011 14.53965246 -23.5625 18.4375 C-19.6025 18.4375 -15.6425 18.4375 -11.5625 18.4375 C-11.5625 19.7575 -11.5625 21.0775 -11.5625 22.4375 C-12.5525 22.1075 -13.5425 21.7775 -14.5625 21.4375 C-14.2325 20.7775 -13.9025 20.1175 -13.5625 19.4375 C-14.50222656 19.56318359 -14.50222656 19.56318359 -15.4609375 19.69140625 C-16.68683594 19.84416016 -16.68683594 19.84416016 -17.9375 20 C-18.74960937 20.10441406 -19.56171875 20.20882812 -20.3984375 20.31640625 C-22.5625 20.4375 -22.5625 20.4375 -24.5625 19.4375 C-24.5625 18.4475 -24.5625 17.4575 -24.5625 16.4375 C-25.2225 16.4375 -25.8825 16.4375 -26.5625 16.4375 C-26.5625 19.0775 -26.5625 21.7175 -26.5625 24.4375 C-26.8925 24.4375 -27.2225 24.4375 -27.5625 24.4375 C-27.99927205 19.08704234 -28.02542472 14.74311216 -24.9609375 10.0703125 C-18.11723369 2.07961923 -10.1400689 0.07058053 0 0 Z " fill="#268A7F" transform="translate(388.5625,108.5625)"/>
<path d="M0 0 C1.32 0.33 2.64 0.66 4 1 C3.7834375 1.67804688 3.566875 2.35609375 3.34375 3.0546875 C0.4732827 12.64949024 -0.52154272 20.81434338 4 30 C4.95289657 31.69403834 5.93360356 33.37501495 7 35 C4 35 4 35 1.3125 32.5 C0.549375 31.675 -0.21375 30.85 -1 30 C-1 30.99 -1 31.98 -1 33 C-1.99 33.495 -1.99 33.495 -3 34 C-2.88658466 36.40877257 -2.88658466 36.40877257 -2 39 C-0.35857037 40.0409066 1.30712215 41.04504326 3 42 C3 42.99 3 43.98 3 45 C3.99 45.33 4.98 45.66 6 46 C5.67 46.66 5.34 47.32 5 48 C5.639375 48.433125 6.27875 48.86625 6.9375 49.3125 C9 51 9 51 10 54 C2.70839079 51.5905987 -1.99933883 45.37560184 -5.4375 38.6875 C-9.07153594 30.91424824 -9.32536564 21.26712668 -7.24609375 13.00390625 C-5.40614774 8.26333946 -3.01142846 4.08693863 0 0 Z " fill="#25796D" transform="translate(155,111)"/>
<path d="M0 0 C3.10553392 0.05184083 6.20827831 0.1468995 9.3125 0.25 C10.63411133 0.27126953 10.63411133 0.27126953 11.98242188 0.29296875 C18.51329899 0.54129107 18.51329899 0.54129107 21.10546875 2.984375 C22 5 22 5 22 6 C24.475 6.495 24.475 6.495 27 7 C27 7.66 27 8.32 27 9 C27.66 9 28.32 9 29 9 C29.30899273 13.5318934 28.95212007 15.55585992 26 19 C26 19.66 26 20.32 26 21 C25.34 21 24.68 21 24 21 C23.67 21.99 23.34 22.98 23 24 C17.74860478 26.62569761 11.74880751 26.59051195 6 26 C4.6521846 25.3631202 3.31639987 24.69950955 2 24 C-1.16695956 23.83275263 -1.16695956 23.83275263 -4 24 C-3.34 22.68 -2.68 21.36 -2 20 C-1.34 20.66 -0.68 21.32 0 22 C0.33 21.67 0.66 21.34 1 21 C2.63256758 20.84285346 4.27135338 20.74914586 5.91015625 20.68359375 C6.89951172 20.64169922 7.88886719 20.59980469 8.90820312 20.55664062 C9.94912109 20.51732422 10.99003906 20.47800781 12.0625 20.4375 C13.10728516 20.39431641 14.15207031 20.35113281 15.22851562 20.30664062 C17.81886884 20.20018775 20.40932186 20.0981724 23 20 C21.68658956 13.87265578 21.68658956 13.87265578 17.67578125 9.5078125 C16.79277344 9.34023437 15.90976562 9.17265625 15 9 C13.56720703 8.68675781 13.56720703 8.68675781 12.10546875 8.3671875 C11.14253906 8.20476562 10.17960938 8.04234375 9.1875 7.875 C8.21167969 7.70742187 7.23585938 7.53984375 6.23046875 7.3671875 C5.49441406 7.24601563 4.75835938 7.12484375 4 7 C4 5.35 4 3.7 4 2 C2.35 2 0.7 2 -1 2 C-0.67 1.34 -0.34 0.68 0 0 Z " fill="#1DECEB" transform="translate(671,170)"/>
<path d="M0 0 C-0.66 0.66 -1.32 1.32 -2 2 C-2.16670273 4.95826106 -2.16670273 4.95826106 -2 8 C-2 9.66666667 -2 11.33333333 -2 13 C-2.928125 13.226875 -3.85625 13.45375 -4.8125 13.6875 C-8.64549221 15.26579091 -9.26237288 16.31334306 -11 20 C-11.39736862 22.95245886 -11.39736862 22.95245886 -11.25 26 C-11.23453125 27.010625 -11.2190625 28.02125 -11.203125 29.0625 C-11.01427356 31.7935824 -10.60765292 34.33416785 -10 37 C-11.75 36.875 -11.75 36.875 -14 36 C-19.24262531 29.25948174 -19.61152873 23.31909833 -19 15 C-17.77248894 8.41198194 -14.41008698 4.76750636 -9 1 C-6.04335481 -0.4783226 -3.25770263 -0.06032783 0 0 Z " fill="#227D70" transform="translate(185,86)"/>
<path d="M0 0 C2.97 0 5.94 0 9 0 C9.33 12.21 9.66 24.42 10 37 C9.34 36.67 8.68 36.34 8 36 C8 35.01 8 34.02 8 33 C7.34 33 6.68 33 6 33 C6 33.66 6 34.32 6 35 C4.515 35.495 4.515 35.495 3 36 C2.01 36.495 2.01 36.495 1 37 C1 28.75 1 20.5 1 12 C0.34 11.67 -0.32 11.34 -1 11 C-1.02688151 9.35425434 -1.04634123 7.70838587 -1.0625 6.0625 C-1.07410156 5.14597656 -1.08570313 4.22945312 -1.09765625 3.28515625 C-1 1 -1 1 0 0 Z " fill="#19CEC9" transform="translate(572,129)"/>
<path d="M0 0 C0 0.66 0 1.32 0 2 C-3.63 2 -7.26 2 -11 2 C-11.33 3.98 -11.66 5.96 -12 8 C-11.195625 8.268125 -10.39125 8.53625 -9.5625 8.8125 C-8.716875 9.204375 -7.87125 9.59625 -7 10 C-6.67 10.99 -6.34 11.98 -6 13 C-6.66 13 -7.32 13 -8 13 C-8 13.66 -8 14.32 -8 15 C-19.33712984 20.74031891 -19.33712984 20.74031891 -26 20 C-26 20.66 -26 21.32 -26 22 C-26.99 22 -27.98 22 -29 22 C-30.09898702 18.70303895 -29.87124444 17.59505097 -29.0625 14.3125 C-28.86785156 13.50425781 -28.67320312 12.69601563 -28.47265625 11.86328125 C-28.23869141 10.94095703 -28.23869141 10.94095703 -28 10 C-27.34 10 -26.68 10 -26 10 C-26 9.01 -26 8.02 -26 7 C-17.20964217 2.83530967 -9.83358589 -0.3450381 0 0 Z " fill="#1FCCC6" transform="translate(220,175)"/>
<path d="M0 0 C2 2.25 2 2.25 3 4 C0.525 3.505 0.525 3.505 -2 3 C-2.495 1.515 -2.495 1.515 -3 0 C-4.32 0.33 -5.64 0.66 -7 1 C-7 1.66 -7 2.32 -7 3 C-6.34 3.33 -5.68 3.66 -5 4 C-3.76117787 7.27923505 -2.78794253 10.58558238 -2 14 C-2.515625 13.29875 -3.03125 12.5975 -3.5625 11.875 C-9.23704218 5.13602372 -9.23704218 5.13602372 -17.0234375 1.76171875 C-21.95974524 1.59194439 -21.95974524 1.59194439 -26.4375 3.4375 C-28.69144825 6.82362997 -28.69144825 6.82362997 -30 15 C-16.635 15.495 -16.635 15.495 -3 16 C-3 16.66 -3 17.32 -3 18 C-6.96907474 18.16729064 -10.93835721 18.32788226 -14.90795898 18.48217773 C-16.25927079 18.53565802 -17.61051052 18.59099194 -18.96166992 18.64819336 C-20.90002989 18.72993571 -22.83868704 18.80453323 -24.77734375 18.87890625 C-25.94515381 18.9260376 -27.11296387 18.97316895 -28.31616211 19.02172852 C-31 19 -31 19 -32 18 C-32.3632306 12.92545485 -32.02224111 7.98342543 -31 3 C-32.32 3.33 -33.64 3.66 -35 4 C-25.81621005 -6.29697661 -11.35995652 -7.81848327 0 0 Z " fill="#3DECED" transform="translate(743,131)"/>
<path d="M0 0 C4 1 4 1 5.265625 3.01171875 C8.42481327 11.59919481 9.69907627 21.06891023 7 30 C6.01 30 5.02 30 4 30 C4 30.99 4 31.98 4 33 C2.515 33.495 2.515 33.495 1 34 C-0.20882096 36.00016466 -0.20882096 36.00016466 -1 38 C-2.32 37.67 -3.64 37.34 -5 37 C-4.67 33.7 -4.34 30.4 -4 27 C-3.34 27 -2.68 27 -2 27 C-2 25.68 -2 24.36 -2 23 C-1.34 23 -0.68 23 0 23 C0 15.41 0 7.82 0 0 Z " fill="#2AEDED" transform="translate(211,116)"/>
<path d="M0 0 C0.66 0.33 1.32 0.66 2 1 C-1.75 4.875 -1.75 4.875 -4 6 C-4.33 6.99 -4.66 7.98 -5 9 C-4.34 9.33 -3.68 9.66 -3 10 C-3.66 10 -4.32 10 -5 10 C-5.33 11.98 -5.66 13.96 -6 16 C-5.67 15.67 -5.34 15.34 -5 15 C-3.00041636 14.95919217 -0.99954746 14.95745644 1 15 C-1.96380551 17.37243587 -4.9362713 19.08372317 -8.375 20.6875 C-9.29023438 21.12449219 -10.20546875 21.56148437 -11.1484375 22.01171875 C-14.26845012 23.09303819 -16.72176255 23.17890086 -20 23 C-20.33 22.01 -20.66 21.02 -21 20 C-20.34 19.67 -19.68 19.34 -19 19 C-18.34444881 16.47266765 -18.34444881 16.47266765 -18 14 C-19.65 14 -21.3 14 -23 14 C-23 12.68 -23 11.36 -23 10 C-22.17757812 9.69707031 -21.35515625 9.39414063 -20.5078125 9.08203125 C-14.08566656 6.67187256 -7.94797547 4.11231392 -1.92578125 0.8203125 C-1.29027344 0.54960937 -0.65476563 0.27890625 0 0 Z " fill="#1DA59B" transform="translate(174,192)"/>
<path d="M0 0 C2.62561109 -0.08074203 5.24875676 -0.1403623 7.875 -0.1875 C8.99455078 -0.22520508 8.99455078 -0.22520508 10.13671875 -0.26367188 C12.3046875 -0.29296875 12.3046875 -0.29296875 16 0 C16.66 0.99 17.32 1.98 18 3 C18.969375 2.505 19.93875 2.01 20.9375 1.5 C25.2057001 -0.33419597 29.4093499 -0.68503887 34 0 C34.99 0.66 35.98 1.32 37 2 C36.34 5.3 35.68 8.6 35 12 C33.659375 11.484375 32.31875 10.96875 30.9375 10.4375 C26.4446822 8.92569875 23.57465679 8.8563358 19 10 C17.21531289 11.78468711 17.86967237 14.41780231 17.8671875 16.828125 C17.86589844 18.02050781 17.86460937 19.21289062 17.86328125 20.44140625 C17.86908203 22.32666016 17.86908203 22.32666016 17.875 24.25 C17.87113281 25.49136719 17.86726562 26.73273438 17.86328125 28.01171875 C17.86521484 29.80802734 17.86521484 29.80802734 17.8671875 31.640625 C17.86831543 32.73922852 17.86944336 33.83783203 17.87060547 34.96972656 C17.9898295 37.76181844 18.36485371 40.28407158 19 43 C18.01 42.34 17.02 41.68 16 41 C15.75716661 38.50198349 15.69940708 36.25415919 15.77734375 33.76171875 C15.79082603 32.68504692 15.79082603 32.68504692 15.80458069 31.58662415 C15.83465726 29.28642978 15.88440805 26.9872702 15.9375 24.6875 C15.98541305 22.3985084 16.02878999 20.10979792 16.05970764 17.82051086 C16.07937018 16.39567905 16.10889157 14.97093922 16.14964294 13.54655457 C16.21433569 9.2452656 15.67119924 7.17799811 14 3 C9.05 3 4.1 3 -1 3 C-0.67 2.01 -0.34 1.02 0 0 Z " fill="#27C3BF" transform="translate(527,127)"/>
<path d="M0 0 C6.09933014 1.66715024 10.54175209 3.43029589 15 8 C15.875 10.3125 15.875 10.3125 16 12 C15.34 12 14.68 12 14 12 C13.67 11.34 13.34 10.68 13 10 C12.01 9.67 11.02 9.34 10 9 C9.67 8.01 9.34 7.02 9 6 C6.525 5.505 6.525 5.505 4 5 C4.33 5.99 4.66 6.98 5 8 C4.34 8.66 3.68 9.32 3 10 C3 10.99 3 11.98 3 13 C3.61875 13.061875 4.2375 13.12375 4.875 13.1875 C7 14 7 14 8.25 16.125 C9.13162656 19.50456848 9.13640927 22.52156374 9 26 C8.34 26 7.68 26 7 26 C6.89042969 25.37351563 6.78085938 24.74703125 6.66796875 24.1015625 C6.43013672 22.87566406 6.43013672 22.87566406 6.1875 21.625 C6.03667969 20.81289062 5.88585937 20.00078125 5.73046875 19.1640625 C5.12455058 16.64179359 5.12455058 16.64179359 2 15 C-0.57956414 14.7073428 -3.1285287 14.62286691 -5.72265625 14.5390625 C-6.47417969 14.36117187 -7.22570312 14.18328125 -8 14 C-9.12109375 12.0859375 -9.12109375 12.0859375 -10 10 C-10.99 9.34 -11.98 8.68 -13 8 C-12.34 6.02 -11.68 4.04 -11 2 C-7.37 2 -3.74 2 0 2 C0 1.34 0 0.68 0 0 Z " fill="#21E5E1" transform="translate(220,175)"/>
<path d="M0 0 C2.475 0.99 2.475 0.99 5 2 C5 3.32 5 4.64 5 6 C6.65 6.33 8.3 6.66 10 7 C10.66 9.31 11.32 11.62 12 14 C12.66 14 13.32 14 14 14 C12.14403212 24.21874082 12.14403212 24.21874082 9 27 C7.68 27 6.36 27 5 27 C5 27.66 5 28.32 5 29 C4.01 29 3.02 29 2 29 C2 24.38 2 19.76 2 15 C1.34 14.67 0.68 14.34 0 14 C0.875 10.125 0.875 10.125 2 9 C1.01 8.34 0.02 7.68 -1 7 C-0.67 6.01 -0.34 5.02 0 4 C0 2.68 0 1.36 0 0 Z " fill="#168778" transform="translate(310,142)"/>
<path d="M0 0 C3.35319999 0.44709333 4.71377461 1.61437351 7 4 C7.99 4.33 8.98 4.66 10 5 C11.38671875 7.07421875 11.38671875 7.07421875 12.6875 9.6875 C13.34298828 10.96173828 13.34298828 10.96173828 14.01171875 12.26171875 C15 15 15 15 15 21 C4.11 21 -6.78 21 -18 21 C-18 20.34 -18 19.68 -18 19 C-10.74 19 -3.48 19 4 19 C4.11140994 12.07460636 4.11140994 12.07460636 1 7 C0.28856912 5.01548229 -0.38991336 3.01797888 -1 1 C-0.67 0.67 -0.34 0.34 0 0 Z " fill="#1EFAF9" transform="translate(736,130)"/>
<path d="M0 0 C2.99810381 4.49715572 2.57040256 8.72919156 2 14 C0.23128765 20.20637985 -3.70270118 24.44798293 -9 28 C-14.61158574 29.87052858 -20.17285602 29.75605958 -25.625 27.5 C-26.40875 27.005 -27.1925 26.51 -28 26 C-28 25.01 -28 24.02 -28 23 C-27.34773437 22.97421875 -26.69546875 22.9484375 -26.0234375 22.921875 C-20.26479372 22.5481577 -16.53450174 21.87091612 -12 18 C-10.16699091 15.89424357 -10.16699091 15.89424357 -9 14 C-9 16.31 -9 18.62 -9 21 C-8.01 20.34 -7.02 19.68 -6 19 C-6 19.66 -6 20.32 -6 21 C-5.01 20.67 -4.02 20.34 -3 20 C-2.09162237 17.52260646 -2 15.66420516 -2 13 C-1.34 13 -0.68 13 0 13 C0 8.71 0 4.42 0 0 Z " fill="#36EBEA" transform="translate(236,187)"/>
<path d="M0 0 C-3 2 -3 2 -6.1875 1.625 C-7.115625 1.41875 -8.04375 1.2125 -9 1 C-7.02 3.31 -5.04 5.62 -3 8 C-3.33 8.66 -3.66 9.32 -4 10 C-4.55429687 9.50628906 -5.10859375 9.01257813 -5.6796875 8.50390625 C-6.40414062 7.86324219 -7.12859375 7.22257813 -7.875 6.5625 C-8.59429688 5.92441406 -9.31359375 5.28632813 -10.0546875 4.62890625 C-13.67224183 1.59974931 -16.32097248 1.60347224 -21 2 C-24.44335033 4.1019855 -25.7865619 5.39683704 -27.14453125 9.234375 C-27.47517578 10.97460938 -27.47517578 10.97460938 -27.8125 12.75 C-28.04582031 13.92046875 -28.27914062 15.0909375 -28.51953125 16.296875 C-28.67808594 17.18890625 -28.83664062 18.0809375 -29 19 C-31 17 -31 17 -31.1953125 14.1796875 C-31.17210937 13.08914062 -31.14890625 11.99859375 -31.125 10.875 C-31.10695313 9.77929688 -31.08890625 8.68359375 -31.0703125 7.5546875 C-31.04710937 6.71164063 -31.02390625 5.86859375 -31 5 C-31.99 4.67 -32.98 4.34 -34 4 C-24.65829362 -4.20937833 -11.11442508 -6.50600492 0 0 Z " fill="#2CCDC7" transform="translate(632,130)"/>
<path d="M0 0 C1.65 0.33 3.3 0.66 5 1 C5 1.66 5 2.32 5 3 C5.845625 3.226875 6.69125 3.45375 7.5625 3.6875 C11.67404851 5.25736398 14.50393484 7.34299048 18 10 C17.67 11.32 17.34 12.64 17 14 C10.07 14 3.14 14 -4 14 C-4 12.68 -4 11.36 -4 10 C-3.34 9.67 -2.68 9.34 -2 9 C-1.61936779 6.6739143 -1.28730055 4.33944736 -1 2 C-0.67 1.34 -0.34 0.68 0 0 Z " fill="#1A9880" transform="translate(367,163)"/>
<path d="M0 0 C2.64 0 5.28 0 8 0 C7.10403939 6.5212323 3.25629057 10.3371109 -1.71484375 14.40234375 C-7.98097832 18.25526238 -15.91545794 17.72274095 -23 17 C-23.99 16.34 -24.98 15.68 -26 15 C-23.36 15 -20.72 15 -18 15 C-18.433125 14.566875 -18.86625 14.13375 -19.3125 13.6875 C-20.875 12.125 -22.4375 10.5625 -24 9 C-23.67 8.34 -23.34 7.68 -23 7 C-22.21625 7.639375 -21.4325 8.27875 -20.625 8.9375 C-16.9598797 11.81723738 -14.75087922 12.36358183 -10.03125 12.26953125 C-6.65241835 11.82118628 -5.21768074 10.53449228 -3 8 C-1.75102279 5.36103202 -0.88579504 2.7972475 0 0 Z " fill="#3DECED" transform="translate(743,160)"/>
<path d="M0 0 C2.32039251 1.60027069 2.89969741 2.72775011 3.875 5.375 C4.0376843 8.79137035 3.02489572 10.30013904 1 13 C-1.88861709 14.44430855 -3.79647701 14.37688506 -7 14 C-9.9375 11.875 -9.9375 11.875 -12 9 C-12 5.63519924 -11.66007311 3.83226609 -9.5625 1.1875 C-6.13778113 -1.41528634 -4.12280791 -1.00966724 0 0 Z " fill="#19CFCA" transform="translate(580,110)"/>
<path d="M0 0 C1.32 0.33 2.64 0.66 4 1 C4.33 2.32 4.66 3.64 5 5 C5.639375 5.103125 6.27875 5.20625 6.9375 5.3125 C7.618125 5.539375 8.29875 5.76625 9 6 C10.83258282 11.49774845 10.65041212 16.19605186 8.3125 21.4375 C6.75653534 24.28731341 6.40797508 24.85164543 3.25 26 C2.5075 26 1.765 26 1 26 C0.67 25.01 0.34 24.02 0 23 C0.33 22.34 0.66 21.68 1 21 C1.22858114 18.9625237 1.41024278 16.91959697 1.5625 14.875 C1.64628906 13.77929688 1.73007812 12.68359375 1.81640625 11.5546875 C1.87699219 10.71164063 1.93757812 9.86859375 2 9 C1.34 9 0.68 9 0 9 C-0.66 6.69 -1.32 4.38 -2 2 C-1.34 2 -0.68 2 0 2 C0 1.34 0 0.68 0 0 Z " fill="#1EECEB" transform="translate(685,133)"/>
<path d="M0 0 C5.55287496 -0.19408107 9.84555363 -0.22894978 15 2 C16.19625 2 17.3925 2 18.625 2 C22 2 22 2 25 4 C25.328125 6.12890625 25.328125 6.12890625 25.25 8.5625 C25.23453125 9.36816406 25.2190625 10.17382812 25.203125 11.00390625 C25 13 25 13 24 14 C21.25 14.4375 21.25 14.4375 18 14 C15.5 11.1875 15.5 11.1875 14.30078125 9.53515625 C12.30153243 7.17568242 9.80679388 6.17493697 7 5 C7 4.34 7 3.68 7 3 C4.69 2.34 2.38 1.68 0 1 C0 0.67 0 0.34 0 0 Z " fill="#188273" transform="translate(294,107)"/>
<path d="M0 0 C0.99 0.33 1.98 0.66 3 1 C3.8125 4.1875 3.8125 4.1875 4 8 C2 11 2 11 -1 13 C-4.56883409 13 -6.88309452 12.68455497 -9.9375 10.8125 C-11.5339636 8.08912093 -11.38630872 6.09046979 -11 3 C-8.75975043 -1.20046795 -4.18602534 -0.4388575 0 0 Z " fill="#179C90" transform="translate(399,111)"/>
<path d="M0 0 C4.62 0 9.24 0 14 0 C14.33 12.54 14.66 25.08 15 38 C14.34 38 13.68 38 13 38 C13 26.12 13 14.24 13 2 C9.04 2 5.08 2 1 2 C1 2.99 1 3.98 1 5 C1.66 5 2.32 5 3 5 C3 5.66 3 6.32 3 7 C3.66 7 4.32 7 5 7 C5.09886835 11.78712933 5.17146623 16.57366475 5.21972656 21.36157227 C5.23984381 22.99025829 5.26714137 24.61887208 5.30175781 26.24731445 C5.35027429 28.58823458 5.37296632 30.92820018 5.390625 33.26953125 C5.42159271 34.36186821 5.42159271 34.36186821 5.45318604 35.47627258 C5.45410156 37.53833008 5.45410156 37.53833008 5 41 C2.97558594 42.9831543 2.97558594 42.9831543 1 44 C1.16081055 43.31228516 1.32162109 42.62457031 1.48730469 41.91601562 C2.49666036 36.17518505 2.22726751 30.31383367 2.25 24.5 C2.270625 23.18128906 2.29125 21.86257812 2.3125 20.50390625 C2.31765625 19.23417969 2.3228125 17.96445313 2.328125 16.65625 C2.3374707 15.49931641 2.34681641 14.34238281 2.35644531 13.15039062 C2.21743394 9.94689185 2.21743394 9.94689185 0.41699219 7.39648438 C-1 5 -1 5 0 0 Z " fill="#30928A" transform="translate(388,127)"/>
<path d="M0 0 C1.07765625 0.01804687 2.1553125 0.03609375 3.265625 0.0546875 C4.49539063 0.08949219 4.49539063 0.08949219 5.75 0.125 C5.75 0.455 5.75 0.785 5.75 1.125 C4.1 1.125 2.45 1.125 0.75 1.125 C1.08 2.115 1.41 3.105 1.75 4.125 C0.63625 4.228125 -0.4775 4.33125 -1.625 4.4375 C-2.82125 4.664375 -4.0175 4.89125 -5.25 5.125 C-7.35827055 8.28740582 -7.58817465 9.63157469 -7.875 13.3125 C-7.94976563 14.21355469 -8.02453125 15.11460937 -8.1015625 16.04296875 C-8.15054688 16.73003906 -8.19953125 17.41710937 -8.25 18.125 C-8.91 17.795 -9.57 17.465 -10.25 17.125 C-11.24444068 13.78006316 -11.35348268 11.43544803 -10.25 8.125 C-11.24 8.62 -11.24 8.62 -12.25 9.125 C-12.25 10.775 -12.25 12.425 -12.25 14.125 C-13.24 14.125 -14.23 14.125 -15.25 14.125 C-15.58 13.795 -15.91 13.465 -16.25 13.125 C-16.58 16.095 -16.91 19.065 -17.25 22.125 C-17.91 22.125 -18.57 22.125 -19.25 22.125 C-19.59553378 16.36610366 -19.61702695 12.06330619 -16.25 7.125 C-11.20783621 2.04046509 -7.15514186 -0.15554656 0 0 Z " fill="#38DBD9" transform="translate(674.25,126.875)"/>
<path d="M0 0 C5.48601863 1.27581829 7.73952441 3.47156168 11 8 C13.66078053 12.53733101 13.77611592 16.85919258 13 22 C11.40295482 25.63936318 9.6405848 29.1797076 6 31 C6 29.02 6 27.04 6 25 C6.66 25 7.32 25 8 25 C9.78409802 21.93753253 10.22880021 19.77920727 10.125 16.25 C10.09792969 15.05117187 10.09792969 15.05117187 10.0703125 13.828125 C10.04710937 13.22484375 10.02390625 12.6215625 10 12 C9.34 12 8.68 12 8 12 C8 15.3 8 18.6 8 22 C7.01 22 6.02 22 5 22 C5 22.99 5 23.98 5 25 C4.34 25 3.68 25 3 25 C3.165 24.505 3.33 24.01 3.5 23.5 C4.79045414 17.04772931 4.3951069 12.65851149 1 7 C2.65 6.67 4.3 6.34 6 6 C5.01 5.34 4.02 4.68 3 4 C3 3.34 3 2.68 3 2 C1.35 2 -0.3 2 -2 2 C-1.34 1.34 -0.68 0.68 0 0 Z " fill="#2DB1AA" transform="translate(502,107)"/>
<path d="M0 0 C0.66 0.33 1.32 0.66 2 1 C0.35 2.98 -1.3 4.96 -3 7 C-2.01 8.485 -2.01 8.485 -1 10 C-1.875 12.6875 -1.875 12.6875 -3 15 C-2.01 15.66 -1.02 16.32 0 17 C0.33 16.01 0.66 15.02 1 14 C1.99 14.66 2.98 15.32 4 16 C-3.4671045 20.31090569 -9.29015546 23.04055665 -18 22 C-14.66688525 20.2175082 -11.75519057 19.51207144 -8 19 C-6.99782936 15.41672247 -6.99782936 15.41672247 -8 12 C-7.5625 9.875 -7.5625 9.875 -7 8 C-7.45375 8.495 -7.9075 8.99 -8.375 9.5 C-10 11 -10 11 -12 11 C-12.33 10.01 -12.66 9.02 -13 8 C-11.66571923 5.33143847 -10.34873908 5.12828027 -7.625 4 C-4.80449365 2.82402341 -2.56621391 1.71080928 0 0 Z " fill="#19D2CC" transform="translate(200,148)"/>
<path d="M0 0 C0.85722656 0.02835938 1.71445313 0.05671875 2.59765625 0.0859375 C3.45230469 0.09882813 4.30695313 0.11171875 5.1875 0.125 C7.74089854 0.47190723 9.44487606 1.1759722 11.66015625 2.4609375 C11.8807346 6.43134787 11.54359557 7.69405886 9.66015625 11.4609375 C6.36015625 11.4609375 3.06015625 11.4609375 -0.33984375 11.4609375 C-0.33984375 10.8009375 -0.33984375 10.1409375 -0.33984375 9.4609375 C-0.99984375 9.1309375 -1.65984375 8.8009375 -2.33984375 8.4609375 C-3.33984375 7.4609375 -3.33984375 7.4609375 -5.33984375 4.4609375 C-3.00813026 0.5925866 -3.00813026 0.5925866 0 0 Z " fill="#169486" transform="translate(144.33984375,203.5390625)"/>
<path d="M0 0 C0.99 0.33 1.98 0.66 3 1 C3.33 10.57 3.66 20.14 4 30 C4.66 30 5.32 30 6 30 C6.25 35.625 6.25 35.625 4 39 C2.68 39 1.36 39 0 39 C0 39.66 0 40.32 0 41 C-1.32 40.34 -2.64 39.68 -4 39 C-2.15368794 34.25234043 -2.15368794 34.25234043 -0.94189453 32.26269531 C0.36553502 29.12188218 0.22408028 26.44147251 0.1953125 23.046875 C0.1924826 22.38665344 0.18965271 21.72643188 0.18673706 21.04620361 C0.17558415 18.94728103 0.15048946 16.84879258 0.125 14.75 C0.11496384 13.32292285 0.1058391 11.89583898 0.09765625 10.46875 C0.07566111 6.97902672 0.04116536 3.48955577 0 0 Z " fill="#2EBBB6" transform="translate(530,136)"/>
<path d="M0 0 C2.31243792 -0.02685412 4.6249627 -0.04632841 6.9375 -0.0625 C8.22527344 -0.07410156 9.51304687 -0.08570312 10.83984375 -0.09765625 C14 0 14 0 15 1 C15.16029688 3.95529504 15.25957328 6.88982457 15.31640625 9.84765625 C15.33718735 10.7340831 15.35796844 11.62050995 15.37937927 12.53379822 C15.444974 15.376617 15.50380552 18.21953117 15.5625 21.0625 C15.6056758 22.98503606 15.64928978 24.90756234 15.69335938 26.83007812 C15.80066543 31.55328668 15.90190451 36.27659153 16 41 C14 40 14 40 13 37 C12.91505272 34.34105893 12.88405204 31.70914623 12.90234375 29.05078125 C12.9037587 28.27816452 12.90517365 27.50554779 12.90663147 26.70951843 C12.91222534 24.24380611 12.92477667 21.77818485 12.9375 19.3125 C12.94251579 17.63997527 12.94707856 15.96744912 12.95117188 14.29492188 C12.96219276 10.19657954 12.97945316 6.09830521 13 2 C8.545 2.495 8.545 2.495 4 3 C4 6.3 4 9.6 4 13 C1.02712371 8.54068557 -0.12506755 5.3421711 0 0 Z " fill="#3BBEBB" transform="translate(568,127)"/>
<path d="M0 0 C2.3125 2.0625 2.3125 2.0625 4 4 C3.01 4.495 3.01 4.495 2 5 C2.020625 6.093125 2.04125 7.18625 2.0625 8.3125 C2 12 2 12 1 15 C0.4225 14.690625 -0.155 14.38125 -0.75 14.0625 C-2.84294184 13.07416636 -4.74535275 12.4831387 -7 12 C-7 11.34 -7 10.68 -7 10 C-7.66 9.67 -8.32 9.34 -9 9 C-8.855625 8.443125 -8.71125 7.88625 -8.5625 7.3125 C-7.95647335 4.95054589 -7.95647335 4.95054589 -7.5625 2.3125 C-7.376875 1.549375 -7.19125 0.78625 -7 0 C-4.23382717 -1.38308641 -2.92591209 -0.90563946 0 0 Z " fill="#28C6C2" transform="translate(190,87)"/>
<path d="M0 0 C-0.66 0.66 -1.32 1.32 -2 2 C-2.16670273 4.95826106 -2.16670273 4.95826106 -2 8 C-2 9.66666667 -2 11.33333333 -2 13 C-2.94875 13.28875 -3.8975 13.5775 -4.875 13.875 C-8.05211578 14.76825109 -8.05211578 14.76825109 -10 17 C-10.99 16.34 -11.98 15.68 -13 15 C-12.835 14.278125 -12.67 13.55625 -12.5 12.8125 C-11.879332 10.06145655 -11.879332 10.06145655 -12.25 7.5 C-12 5 -12 5 -9.9375 2.1875 C-6.34825296 -0.48534354 -4.37381963 -0.42880585 0 0 Z " fill="#1DAAA0" transform="translate(185,86)"/>
<path d="M0 0 C0.33 0.66 0.66 1.32 1 2 C4.3 2 7.6 2 11 2 C11 2.33 11 2.66 11 3 C10.39671875 3.02578125 9.7934375 3.0515625 9.171875 3.078125 C5.4967971 3.33893698 2.73570442 3.54725882 -0.4375 5.5 C-2.70780199 8.82337372 -2.70780199 8.82337372 -4 17 C9.365 17.495 9.365 17.495 23 18 C23 18.66 23 19.32 23 20 C19.03092526 20.16729064 15.06164279 20.32788226 11.09204102 20.48217773 C9.74072921 20.53565802 8.38948948 20.59099194 7.03833008 20.64819336 C5.09997011 20.72993571 3.16131296 20.80453323 1.22265625 20.87890625 C0.05484619 20.9260376 -1.11296387 20.97316895 -2.31616211 21.02172852 C-5 21 -5 21 -6 20 C-6.3632306 14.92545485 -6.02224111 9.98342543 -5 5 C-6.32 5.33 -7.64 5.66 -9 6 C-3.15384615 0 -3.15384615 0 0 0 Z " fill="#3EECED" transform="translate(717,129)"/>
<path d="M0 0 C0.61875 0.515625 1.2375 1.03125 1.875 1.5625 C1.875 2.2225 1.875 2.8825 1.875 3.5625 C1.07835937 3.66046875 0.28171875 3.7584375 -0.5390625 3.859375 C-6.75204273 4.73614593 -11.26266231 5.51055192 -16.125 9.5625 C-16.125 8.9025 -16.125 8.2425 -16.125 7.5625 C-17.445 6.9025 -18.765 6.2425 -20.125 5.5625 C-19.135 5.5625 -18.145 5.5625 -17.125 5.5625 C-16.795 3.2525 -16.465 0.9425 -16.125 -1.4375 C-10.76965758 -3.22261414 -5.07800955 -2.33588439 0 0 Z " fill="#208A7B" transform="translate(156.125,177.4375)"/>
<path d="M0 0 C0 2.64 0 5.28 0 8 C0.99 8 1.98 8 3 8 C3.433125 9.216875 3.86625 10.43375 4.3125 11.6875 C5.56201629 15.03739367 7.03123567 17.99997817 9 21 C6 21 6 21 3.3125 18.5 C2.549375 17.675 1.78625 16.85 1 16 C1 16.99 1 17.98 1 19 C-0.32 19.33 -1.64 19.66 -3 20 C-4.07670039 16.46599146 -4.1997147 13.12089824 -4.25 9.4375 C-4.27578125 8.30183594 -4.3015625 7.16617188 -4.328125 5.99609375 C-4 3 -4 3 -2.546875 1.09765625 C-1 0 -1 0 0 0 Z " fill="#148574" transform="translate(153,125)"/>
<path d="M0 0 C0.99 0 1.98 0 3 0 C2.67 1.65 2.34 3.3 2 5 C2.804375 5.268125 3.60875 5.53625 4.4375 5.8125 C5.283125 6.204375 6.12875 6.59625 7 7 C7.33 7.99 7.66 8.98 8 10 C7.34 10 6.68 10 6 10 C6 10.66 6 11.32 6 12 C2.52674819 13.1577506 -0.36067448 13.06866652 -4 13 C-4.33 11.35 -4.66 9.7 -5 8 C-5.99 8 -6.98 8 -8 8 C-8 6.68 -8 5.36 -8 4 C-6.576875 3.566875 -6.576875 3.566875 -5.125 3.125 C-1.94788422 2.23174891 -1.94788422 2.23174891 0 0 Z " fill="#1DD6D1" transform="translate(206,178)"/>
<path d="M0 0 C2.62561109 -0.08074203 5.24875676 -0.1403623 7.875 -0.1875 C8.99455078 -0.22520508 8.99455078 -0.22520508 10.13671875 -0.26367188 C12.3046875 -0.29296875 12.3046875 -0.29296875 16 0 C16.66 0.99 17.32 1.98 18 3 C19.32 2.67 20.64 2.34 22 2 C22 2.66 22 3.32 22 4 C21.01 4 20.02 4 19 4 C19 4.99 19 5.98 19 7 C20.98 7 22.96 7 25 7 C22.68143083 8.54571278 20.49361571 9.79618552 18 11 C17.97092416 15.3958194 17.9531756 19.79161399 17.9375 24.1875 C17.92912109 25.43337891 17.92074219 26.67925781 17.91210938 27.96289062 C17.90888672 29.16494141 17.90566406 30.36699219 17.90234375 31.60546875 C17.89710693 32.71043701 17.89187012 33.81540527 17.88647461 34.95385742 C17.99098077 37.75799379 18.35902041 40.27417329 19 43 C18.01 42.34 17.02 41.68 16 41 C15.75716661 38.50198349 15.69940708 36.25415919 15.77734375 33.76171875 C15.79082603 32.68504692 15.79082603 32.68504692 15.80458069 31.58662415 C15.83465726 29.28642978 15.88440805 26.9872702 15.9375 24.6875 C15.98541305 22.3985084 16.02878999 20.10979792 16.05970764 17.82051086 C16.07937018 16.39567905 16.10889157 14.97093922 16.14964294 13.54655457 C16.21433569 9.2452656 15.67119924 7.17799811 14 3 C9.05 3 4.1 3 -1 3 C-0.67 2.01 -0.34 1.02 0 0 Z " fill="#3AB7B4" transform="translate(527,127)"/>
<path d="M0 0 C0.66 0.33 1.32 0.66 2 1 C0.7934375 1.86625 0.7934375 1.86625 -0.4375 2.75 C-2.97866739 4.98126893 -3.65120368 5.74456771 -4 9 C-4.66 9 -5.32 9 -6 9 C-6 9.66 -6 10.32 -6 11 C-5.34 11.33 -4.68 11.66 -4 12 C-4.639375 12.680625 -5.27875 13.36125 -5.9375 14.0625 C-8.3258493 17.46408839 -8.67877153 19.90433701 -9 24 C-8.360625 24.309375 -7.72125 24.61875 -7.0625 24.9375 C-4.6170214 26.197292 -4.22498199 26.55003602 -3 29 C-2.34 29 -1.68 29 -1 29 C-0.67 28.34 -0.34 27.68 0 27 C-0.165 28.093125 -0.33 29.18625 -0.5 30.3125 C-1.06718184 33.87525873 -1.06718184 33.87525873 -1 37 C-5.24348409 34.05313605 -8.42313119 30.97384684 -10 26 C-10.96160719 18.51192916 -11.11072863 11.76635583 -6.4453125 5.5546875 C-4.47053071 3.43046277 -2.39050636 1.63920436 0 0 Z " fill="#217B6D" transform="translate(138,177)"/>
<path d="M0 0 C19.43439275 -0.69134203 19.43439275 -0.69134203 26.9375 5.375 C29.99058646 9.2607464 31.02647692 11.5172927 30.9375 16.5 C29.83240501 20.62568796 28.21949855 22.27580892 25 25 C24.34 24.67 23.68 24.34 23 24 C23.33 23.34 23.66 22.68 24 22 C24.66 22 25.32 22 26 22 C25.67 20.68 25.34 19.36 25 18 C25.66 18 26.32 18 27 18 C27.66 15.36 28.32 12.72 29 10 C28.34 10 27.68 10 27 10 C27 9.34 27 8.68 27 8 C25.8553125 8.1546875 25.8553125 8.1546875 24.6875 8.3125 C23.3571875 8.1578125 23.3571875 8.1578125 22 8 C21.6390625 7.1853125 21.278125 6.370625 20.90625 5.53125 C19.311327 2.86916637 19.311327 2.86916637 17.07543945 2.49487305 C14.6454895 2.28210771 12.25163828 2.20447776 9.8125 2.1875 C8.96751953 2.16236328 8.12253906 2.13722656 7.25195312 2.11132812 C5.1684695 2.05247266 3.08418373 2.02337005 1 2 C0.67 1.34 0.34 0.68 0 0 Z " fill="#3CE3E1" transform="translate(671,169)"/>
<path d="M0 0 C5.28 0 10.56 0 16 0 C16.0093457 1.71509766 16.01869141 3.43019531 16.02832031 5.19726562 C16.06396402 10.88915096 16.11783522 16.58067247 16.18390274 22.27228546 C16.22326903 25.72027886 16.2555099 29.16802104 16.27099609 32.61621094 C16.28915662 36.58821815 16.33915575 40.55952946 16.390625 44.53125 C16.39246796 46.37233337 16.39246796 46.37233337 16.39434814 48.25061035 C16.51615772 55.42008031 17.52790834 59.76987152 21 66 C20.61871338 68.2130127 20.61871338 68.2130127 20 70 C20 69.01 20 68.02 20 67 C18.68 66.67 17.36 66.34 16 66 C14.74382891 59.22363072 14.87355938 52.5028113 14.90234375 45.62890625 C14.9037587 44.35144028 14.90517365 43.0739743 14.90663147 41.75779724 C14.91126484 38.38275254 14.92022977 35.00777703 14.93133545 31.63275146 C14.94161574 28.18030389 14.94614319 24.72784913 14.95117188 21.27539062 C14.96217534 14.51690569 14.97942678 7.7584623 15 1 C10.38 1 5.76 1 1 1 C1.33 2.32 1.66 3.64 2 5 C1.34 4.67 0.68 4.34 0 4 C0 2.68 0 1.36 0 0 Z " fill="#309B97" transform="translate(436,106)"/>
<path d="M0 0 C0.99 0 1.98 0 3 0 C6.70721995 7.48064025 7.51345509 13.69914269 7 22 C5.35 21.67 3.7 21.34 2 21 C1.93941406 20.07058594 1.87882813 19.14117187 1.81640625 18.18359375 C1.20428448 9.05853115 1.20428448 9.05853115 0 0 Z " fill="#1FEBEB" transform="translate(192,93)"/>
<path d="M0 0 C0.33 0.66 0.66 1.32 1 2 C-0.32 2 -1.64 2 -3 2 C-3 2.99 -3 3.98 -3 5 C-9.13053511 5.32712342 -13.62669111 5.39366878 -19 2 C-19 1.01 -19 0.02 -19 -1 C-16.7722603 -1.22307542 -14.54268636 -1.42788178 -12.3125 -1.625 C-11.07113281 -1.74101562 -9.82976562 -1.85703125 -8.55078125 -1.9765625 C-5.04758722 -1.99968589 -3.0503853 -1.66384653 0 0 Z " fill="#1CEEEA" transform="translate(227,211)"/>
<path d="M0 0 C0.99 0.33 1.98 0.66 3 1 C3.33 1.99 3.66 2.98 4 4 C4.99 4.33 5.98 4.66 7 5 C7.28875 5.825 7.5775 6.65 7.875 7.5 C8.24625 8.325 8.6175 9.15 9 10 C11.54775306 10.89386164 11.54775306 10.89386164 14 11 C14 11.66 14 12.32 14 13 C12.35 12.67 10.7 12.34 9 12 C9 13.65 9 15.3 9 17 C7.35 16.67 5.7 16.34 4 16 C3.67 16.66 3.34 17.32 3 18 C2.34 17.34 1.68 16.68 1 16 C1 16.99 1 17.98 1 19 C0.34 19 -0.32 19 -1 19 C-1 20.32 -1 21.64 -1 23 C-1.66 23 -2.32 23 -3 23 C-2.74563586 18.67580959 -2.48340805 16.54538344 0.4375 13.25 C1.283125 12.5075 2.12875 11.765 3 11 C3.66 10.01 4.32 9.02 5 8 C4.175 7.05125 3.35 6.1025 2.5 5.125 C0 2.25 0 2.25 0 0 Z " fill="#31DCDC" transform="translate(656,150)"/>
<path d="M0 0 C2.56074313 2.96915036 3.38643436 4.85675216 3.51171875 8.765625 C3.54716797 9.65507812 3.58261719 10.54453125 3.61914062 11.4609375 C3.64169922 12.38132813 3.66425781 13.30171875 3.6875 14.25 C3.72166016 15.18585938 3.75582031 16.12171875 3.79101562 17.0859375 C3.87332162 19.39050533 3.9425263 21.69470119 4 24 C3.01 24 2.02 24 1 24 C1 24.99 1 25.98 1 27 C0.01 27 -0.98 27 -2 27 C-2.23509196 22.18061476 -1.45184478 18.53701494 0 14 C-0.66 13.67 -1.32 13.34 -2 13 C-1.67 12.67 -1.34 12.34 -1 12 C-0.95360136 10.1672539 -0.96220735 8.33294376 -1 6.5 C-1.03779265 4.66705624 -1.04639864 2.8327461 -1 1 C-0.67 0.67 -0.34 0.34 0 0 Z " fill="#1EF7F9" transform="translate(214,122)"/>
<path d="M0 0 C0.99 0.33 1.98 0.66 3 1 C2.67 1.99 2.34 2.98 2 4 C4.97 4.99 7.94 5.98 11 7 C5.89306527 10.91531663 3.36484364 11.10265877 -3 11 C-3 11.66 -3 12.32 -3 13 C-3.99 12.67 -4.98 12.34 -6 12 C-5.34 12 -4.68 12 -4 12 C-3.96261719 11.30132812 -3.92523438 10.60265625 -3.88671875 9.8828125 C-3.78810547 8.51769531 -3.78810547 8.51769531 -3.6875 7.125 C-3.62949219 6.22007812 -3.57148438 5.31515625 -3.51171875 4.3828125 C-3 2 -3 2 0 0 Z " fill="#17AFA6" transform="translate(172,196)"/>
<path d="M0 0 C0.66 0.33 1.32 0.66 2 1 C2.10176424 8.1165744 2.17161829 15.2329598 2.21972656 22.35009766 C2.23979065 24.7691143 2.26704843 27.18808276 2.30175781 29.60693359 C2.35050341 33.09224368 2.37302164 36.57691016 2.390625 40.0625 C2.41127014 41.13677246 2.43191528 42.21104492 2.45318604 43.31787109 C2.45516993 50.01867882 1.48989181 54.2519429 -2 60 C-0.35 60 1.3 60 3 60 C1.1875 61.0625 1.1875 61.0625 -1 62 C-1.99 61.67 -2.98 61.34 -4 61 C-3.54170842 57.97527556 -2.88377303 55.77352025 -1.4753418 53.02905273 C0.69970694 48.01957948 0.37331784 42.97205634 0.29296875 37.59765625 C0.28872391 36.51995468 0.28447906 35.44225311 0.28010559 34.33189392 C0.26338719 30.90850254 0.22574683 27.4857118 0.1875 24.0625 C0.17244436 21.73373249 0.1587575 19.40495571 0.14648438 17.07617188 C0.11350608 11.38391156 0.06337483 5.69199871 0 0 Z " fill="#409D9A" transform="translate(466,115)"/>
<path d="M0 0 C-0.185625 0.9075 -0.37125 1.815 -0.5625 2.75 C-0.95734621 5.68314324 -0.94691572 7.2644657 0 10 C2.97 10.495 2.97 10.495 6 11 C6 11.66 6 12.32 6 13 C2.17010894 14.80230168 -0.78121808 15.19622241 -5 15 C-5.33 14.01 -5.66 13.02 -6 12 C-5.34 11.67 -4.68 11.34 -4 11 C-3.34444881 8.47266765 -3.34444881 8.47266765 -3 6 C-4.65 6 -6.3 6 -8 6 C-8 4.68 -8 3.36 -8 2 C-2.25 0 -2.25 0 0 0 Z " fill="#1F9B8F" transform="translate(159,200)"/>
<path d="M0 0 C0.99 0.33 1.98 0.66 3 1 C3.55253221 8.35174806 2.51064108 13.511583 -1 20 C-1.33 19.01 -1.66 18.02 -2 17 C-4.00016466 15.79117904 -4.00016466 15.79117904 -6 15 C-5.34 15 -4.68 15 -4 15 C-4 11.7 -4 8.4 -4 5 C-2.68 5.66 -1.36 6.32 0 7 C0 4.69 0 2.38 0 0 Z " fill="#1AE6E3" transform="translate(661,134)"/>
<path d="M0 0 C0.66 0.33 1.32 0.66 2 1 C1.34 1.66 0.68 2.32 0 3 C-0.16666667 6.5 -0.16666667 6.5 0 10 C0 10.66 0 11.32 0 12 C0.31478446 13.33783393 0.64587656 14.67203709 1 16 C0.01 16.33 -0.98 16.66 -2 17 C-2.33 19.97 -2.66 22.94 -3 26 C-6 23 -6 23 -6.25 19.625 C-5.80615431 13.18923752 -4.72369299 4.72369299 0 0 Z " fill="#1C8F83" transform="translate(174,88)"/>
<path d="M0 0 C0.33 0 0.66 0 1 0 C1.125 5.75 1.125 5.75 0 8 C-0.66 8 -1.32 8 -2 8 C-2 8.66 -2 9.32 -2 10 C1.63 10.33 5.26 10.66 9 11 C9.33 8.69 9.66 6.38 10 4 C10.99 4 11.98 4 13 4 C13 5.32 13 6.64 13 8 C13.99 8.33 14.98 8.66 16 9 C16 10.32 16 11.64 16 13 C9.73 13 3.46 13 -3 13 C-4.125 7.375 -4.125 7.375 -2.0625 3.6875 C-1.68222656 2.99011719 -1.30195313 2.29273438 -0.91015625 1.57421875 C-0.60980469 1.05472656 -0.30945313 0.53523437 0 0 Z " fill="#1DAAA3" transform="translate(440,164)"/>
<path d="M0 0 C0 0.66 0 1.32 0 2 C-0.66 2 -1.32 2 -2 2 C-2.33 5.96 -2.66 9.92 -3 14 C-4.65 14.66 -6.3 15.32 -8 16 C-9.125 9.25 -9.125 9.25 -8 7 C-8 5.68 -8 4.36 -8 3 C-2.25 0 -2.25 0 0 0 Z " fill="#1CC2BB" transform="translate(194,183)"/>
<path d="M0 0 C5.61 0 11.22 0 17 0 C17 12.87 17 25.74 17 39 C16.67 39 16.34 39 16 39 C15.67 26.46 15.34 13.92 15 1 C11.04 1 7.08 1 3 1 C3.33 3.64 3.66 6.28 4 9 C0 4.5 0 4.5 0 0 Z " fill="#358177" transform="translate(328,106)"/>
<path d="M0 0 C2.475 0.495 2.475 0.495 5 1 C7 7.75 7 7.75 7 10 C4.54724859 11.2263757 2.9494219 11.11415314 0.2109375 11.09765625 C-0.73007812 11.09443359 -1.67109375 11.09121094 -2.640625 11.08789062 C-3.62546875 11.07951172 -4.6103125 11.07113281 -5.625 11.0625 C-7.11386719 11.05573242 -7.11386719 11.05573242 -8.6328125 11.04882812 C-11.0886016 11.03702145 -13.54427104 11.020554 -16 11 C-16 10.34 -16 9.68 -16 9 C-17.32 8.67 -18.64 8.34 -20 8 C-19.34 7.67 -18.68 7.34 -18 7 C-17.01 7.33 -16.02 7.66 -15 8 C-12.34306002 8.096616 -9.71859145 8.13926728 -7.0625 8.125 C-5.98838867 8.13080078 -5.98838867 8.13080078 -4.89257812 8.13671875 C-1.45821844 8.13035293 1.71864926 8.07950442 5 7 C3.75023244 3.34683329 3.32901247 2.21934164 0 0 Z " fill="#3CDFDF" transform="translate(687,180)"/>
<path d="M0 0 C0.99 0 1.98 0 3 0 C3 2.64 3 5.28 3 8 C-1.29 8 -5.58 8 -10 8 C-10 7.34 -10 6.68 -10 6 C-9.01 6 -8.02 6 -7 6 C-7 4.68 -7 3.36 -7 2 C-3.535 1.505 -3.535 1.505 0 1 C0 0.67 0 0.34 0 0 Z " fill="#1EEDEB" transform="translate(696,121)"/>
<path d="M0 0 C2.375 0.1875 2.375 0.1875 5 1 C6.3125 3.5625 6.3125 3.5625 7 6 C6.01 5.67 5.02 5.34 4 5 C4.165 5.94875 4.33 6.8975 4.5 7.875 C5.4536049 14.59110305 5.39924103 21.35360511 4 28 C3.34 28 2.68 28 2 28 C2 29.32 2 30.64 2 32 C0.68 32.66 -0.64 33.32 -2 34 C-1.731875 33.34 -1.46375 32.68 -1.1875 32 C-0.795625 31.01 -0.40375 30.02 0 29 C0.26425781 28.39542969 0.52851563 27.79085937 0.80078125 27.16796875 C4.10481759 19.22888617 3.36064705 13.17468598 0.65625 5.19921875 C0 3 0 3 0 0 Z " fill="#45DFE0" transform="translate(207,111)"/>
<path d="M0 0 C0.33 0 0.66 0 1 0 C1 9.9 1 19.8 1 30 C7.27 30 13.54 30 20 30 C20 30.33 20 30.66 20 31 C14.06 31 8.12 31 2 31 C2 31.66 2 32.32 2 33 C-0.95664519 34.4783226 -3.74229737 34.06032783 -7 34 C-3.375 31 -3.375 31 0 31 C0 20.77 0 10.54 0 0 Z " fill="#30A5A0" transform="translate(478,142)"/>
<path d="M0 0 C0.33 0 0.66 0 1 0 C0.99214478 1.19544434 0.99214478 1.19544434 0.98413086 2.41503906 C0.963341 6.02668469 0.95033339 9.63831771 0.9375 13.25 C0.92912109 14.50425781 0.92074219 15.75851563 0.91210938 17.05078125 C0.90888672 18.25605469 0.90566406 19.46132812 0.90234375 20.703125 C0.89448853 22.36843262 0.89448853 22.36843262 0.88647461 24.06738281 C0.98418058 26.5913487 1.33599068 28.58816587 2 31 C2 31.99 2 32.98 2 34 C1.34 34 0.68 34 0 34 C-0.33 33.67 -0.66 33.34 -1 33 C-1 33.99 -1 34.98 -1 36 C-1.99 35.67 -2.98 35.34 -4 35 C-4.32049659 31.58136976 -3.89287446 29.74700138 -2.53125 26.53125 C-0.49503595 21.26997644 -0.4407999 16.08654417 -0.3125 10.5 C-0.27833984 9.48679688 -0.24417969 8.47359375 -0.20898438 7.4296875 C-0.12721474 4.95323583 -0.0578375 2.47710651 0 0 Z " fill="#35C1BF" transform="translate(572,141)"/>
<path d="M0 0 C0.61875 0.78375 1.2375 1.5675 1.875 2.375 C3.89858661 4.96837647 3.89858661 4.96837647 6 7 C4.02 7.33 2.04 7.66 0 8 C0 9.32 0 10.64 0 12 C1.65 12.33 3.3 12.66 5 13 C5 13.66 5 14.32 5 15 C-0.66235414 13.68317346 -2.78427747 11.63442365 -6 7 C-6 6.01 -6 5.02 -6 4 C-5.34 4 -4.68 4 -4 4 C-3.67 4.66 -3.34 5.32 -3 6 C-2.34 5.67 -1.68 5.34 -1 5 C-0.34444881 2.47266765 -0.34444881 2.47266765 0 0 Z " fill="#37D9DA" transform="translate(661,180)"/>
<path d="M0 0 C1.65 0 3.3 0 5 0 C5 1.65 5 3.3 5 5 C5.66 5 6.32 5 7 5 C7.33 3.68 7.66 2.36 8 1 C8.66 1.33 9.32 1.66 10 2 C9.525625 2.7425 9.05125 3.485 8.5625 4.25 C6.07656914 9.10460084 6.2508275 14.65477938 6 20 C5.34 20 4.68 20 4 20 C3.81824219 18.33710938 3.81824219 18.33710938 3.6328125 16.640625 C3.46393704 15.17703766 3.29464428 13.71349843 3.125 12.25 C3.04636719 11.52039063 2.96773437 10.79078125 2.88671875 10.0390625 C2.44863824 6.33222743 2.0013785 3.19547828 0 0 Z " fill="#32D7D4" transform="translate(629,111)"/>
<path d="M0 0 C3.11710974 0.61649504 5.2522804 1.66268774 7.875 3.4375 C11.14667704 5.55735067 14.21505001 6.95913875 18 8 C17.401875 8.28875 16.80375 8.5775 16.1875 8.875 C12.43811379 10.73926079 12.43811379 10.73926079 10 14 C9.34 14 8.68 14 8 14 C7.875 8.25 7.875 8.25 9 6 C7.88625 5.87625 6.7725 5.7525 5.625 5.625 C2 5 2 5 0 3 C0 2.01 0 1.02 0 0 Z " fill="#1FA097" transform="translate(160,146)"/>
<path d="M0 0 C3.96 0 7.92 0 12 0 C11 4 11 4 9.2578125 5.046875 C8.55398438 5.27890625 7.85015625 5.5109375 7.125 5.75 C6.42632812 5.99234375 5.72765625 6.2346875 5.0078125 6.484375 C3 7 3 7 0 7 C0 4.69 0 2.38 0 0 Z " fill="#189386" transform="translate(363,128)"/>
<path d="M0 0 C0.33 1.65 0.66 3.3 1 5 C-3.29 5 -7.58 5 -12 5 C-12.33 4.01 -12.66 3.02 -13 2 C-8.46298506 0.54815522 -4.81938524 -0.23509196 0 0 Z " fill="#158172" transform="translate(307,171)"/>
<path d="M0 0 C1.4540625 0.0309375 1.4540625 0.0309375 2.9375 0.0625 C3.2675 0.7225 3.5975 1.3825 3.9375 2.0625 C2.9475 2.5575 2.9475 2.5575 1.9375 3.0625 C1.958125 4.155625 1.97875 5.24875 2 6.375 C1.9375 10.0625 1.9375 10.0625 0.9375 13.0625 C-1.01171875 12.37890625 -1.01171875 12.37890625 -3.0625 11.0625 C-3.70703125 8.71484375 -3.70703125 8.71484375 -3.875 6 C-3.94332031 5.10152344 -4.01164063 4.20304687 -4.08203125 3.27734375 C-4.05126982 -0.21100241 -3.54109701 0.07226729 0 0 Z " fill="#24D5D0" transform="translate(190.0625,88.9375)"/>
<path d="M0 0 C4.31392226 0.4793247 6.16569547 1.7457985 9 5 C8.01 5 7.02 5 6 5 C6 4.34 6 3.68 6 3 C4.35 3.33 2.7 3.66 1 4 C1.495 4.70125 1.99 5.4025 2.5 6.125 C4.1936681 9.37119719 4.25162315 11.39340156 4 15 C3.34 14.01 2.68 13.02 2 12 C-0.25609633 9.236282 -2.47666237 6.52333763 -5 4 C-4.0409375 3.8453125 -4.0409375 3.8453125 -3.0625 3.6875 C-2.381875 3.460625 -1.70125 3.23375 -1 3 C-0.67 2.01 -0.34 1.02 0 0 Z " fill="#2EB2AC" transform="translate(507,139)"/>
<path d="M0 0 C0.33 0.66 0.66 1.32 1 2 C1.61875 1.79375 2.2375 1.5875 2.875 1.375 C3.926875 1.189375 3.926875 1.189375 5 1 C5.66 1.66 6.32 2.32 7 3 C4.05868109 3.98043964 2.17498335 4.11621202 -0.88671875 4.09765625 C-1.82451172 4.09443359 -2.76230469 4.09121094 -3.72851562 4.08789062 C-4.70498047 4.07951172 -5.68144531 4.07113281 -6.6875 4.0625 C-8.16959961 4.05573242 -8.16959961 4.05573242 -9.68164062 4.04882812 C-12.12115474 4.03704303 -14.56054689 4.02059011 -17 4 C-17.33 4.66 -17.66 5.32 -18 6 C-18.66 5.34 -19.32 4.68 -20 4 C-19.34 4 -18.68 4 -18 4 C-18 3.34 -18 2.68 -18 2 C-12.06 2 -6.12 2 0 2 C0 1.34 0 0.68 0 0 Z " fill="#15B7B1" transform="translate(498,171)"/>
<path d="M0 0 C0.66 0 1.32 0 2 0 C2 1.65 2 3.3 2 5 C1.01 5.33 0.02 5.66 -1 6 C-1 6.99 -1 7.98 -1 9 C1.64 9.66 4.28 10.32 7 11 C6.4225 11.268125 5.845 11.53625 5.25 11.8125 C2.9674132 13.01719859 1.0262058 14.40798115 -1 16 C-1.99 15.34 -2.98 14.68 -4 14 C-3.835 13.278125 -3.67 12.55625 -3.5 11.8125 C-2.9019605 9.05454412 -2.9019605 9.05454412 -3.125 6.4375 C-2.96892581 3.39405331 -2.08957565 2.16994394 0 0 Z " fill="#219E93" transform="translate(176,87)"/>
<path d="M0 0 C2.45933991 0.11369211 4.9167909 0.24042651 7.375 0.375 C8.07367187 0.4059375 8.77234375 0.436875 9.4921875 0.46875 C14.7734375 0.7734375 14.7734375 0.7734375 17 3 C13.32431536 3.91892116 11.83619425 3.95904856 8 3 C9.98 5.31 11.96 7.62 14 10 C13.67 10.66 13.34 11.32 13 12 C11.72799029 10.89718873 10.45744147 9.79269231 9.1875 8.6875 C8.47980469 8.07261719 7.77210938 7.45773438 7.04296875 6.82421875 C5.2973318 5.26549512 3.635135 3.6726166 2 2 C1.34 1.34 0.68 0.68 0 0 Z " fill="#30D5D2" transform="translate(615,128)"/>
<path d="M0 0 C1.875 0.0625 1.875 0.0625 4 1 C7.71947362 7.1991227 8.11739087 11.95654803 8 19 C7.67 19 7.34 19 7 19 C6.87882813 18.35933594 6.75765625 17.71867187 6.6328125 17.05859375 C5.64320773 11.95071067 4.51489049 6.97749731 3 2 C2.34 2.66 1.68 3.32 1 4 C1.165 5.155 1.33 6.31 1.5 7.5 C1.665 8.655 1.83 9.81 2 11 C1.34 11.66 0.68 12.32 0 13 C-0.77287314 8.94241601 -1.19223268 5.13300269 -1 1 C-0.67 0.67 -0.34 0.34 0 0 Z " fill="#34E4DF" transform="translate(192,91)"/>
<path d="M0 0 C2.475 0.99 2.475 0.99 5 2 C5 2.99 5 3.98 5 5 C5.99 5.33 6.98 5.66 8 6 C7.67 6.66 7.34 7.32 7 8 C7.639375 8.433125 8.27875 8.86625 8.9375 9.3125 C11 11 11 11 12 14 C7.21691912 12.59321151 3.92955833 9.97449633 1 6 C0.125 2.625 0.125 2.625 0 0 Z " fill="#138D7B" transform="translate(153,151)"/>
<path d="M0 0 C0.33 0.66 0.66 1.32 1 2 C4.3 2 7.6 2 11 2 C11 2.33 11 2.66 11 3 C10.39671875 3.02578125 9.7934375 3.0515625 9.171875 3.078125 C4.03742755 3.41165046 4.03742755 3.41165046 -0.4375 5.75 C-2.06675314 8.09612453 -3.09827158 10.29481475 -4 13 C-4.82638376 10.10765685 -5 8.11257569 -5 5 C-6.32 5.33 -7.64 5.66 -9 6 C-3.15384615 0 -3.15384615 0 0 0 Z " fill="#43E2E6" transform="translate(717,129)"/>
<path d="M0 0 C0 0.66 0 1.32 0 2 C-0.73605469 2.03738281 -1.47210938 2.07476562 -2.23046875 2.11328125 C-7.6479043 2.4782604 -11.48568626 2.77549019 -16 6 C-19.89273374 7.58887092 -22.00069247 8.20409259 -26 7 C-17.20964217 2.83530967 -9.83358589 -0.3450381 0 0 Z " fill="#3DCDCA" transform="translate(220,175)"/>
<path d="M0 0 C1.16144531 0.20367187 2.32289063 0.40734375 3.51953125 0.6171875 C4.39996094 0.78476563 5.28039062 0.95234375 6.1875 1.125 C6.1875 1.785 6.1875 2.445 6.1875 3.125 C5.1975 3.08375 4.2075 3.0425 3.1875 3 C0.27146659 2.98225537 -2.19434859 3.40318094 -5 4.1875 C-8.5715154 5.06574149 -9.53901681 5.1629337 -12.8125 4.125 C-12.1525 4.125 -11.4925 4.125 -10.8125 4.125 C-11.1425 3.135 -11.4725 2.145 -11.8125 1.125 C-7.51476021 -1.06029142 -4.69136533 -0.85297551 0 0 Z " fill="#40D2D2" transform="translate(634.8125,171.875)"/>
<path d="M0 0 C3.1875 -0.375 3.1875 -0.375 7 0 C9.75 2.8125 9.75 2.8125 12 6 C12.98290968 7.01680311 13.97334787 8.02738219 15 9 C13.35 8.67 11.7 8.34 10 8 C10 8.66 10 9.32 10 10 C9.34 10 8.68 10 8 10 C8 9.34 8 8.68 8 8 C7.34 7.34 6.68 6.68 6 6 C6.66 6 7.32 6 8 6 C5.74740471 2.5084773 5.29425875 2.07356469 1 1 C1.33 4.3 1.66 7.6 2 11 C1.34 10.67 0.68 10.34 0 10 C0 6.7 0 3.4 0 0 Z " fill="#257467" transform="translate(271,160)"/>
<path d="M0 0 C1.31226563 -0.00515625 2.62453125 -0.0103125 3.9765625 -0.015625 C7.375 0.25 7.375 0.25 10.375 2.25 C6.745 2.25 3.115 2.25 -0.625 2.25 C0.365 3.24 1.355 4.23 2.375 5.25 C0.91619891 5.10892253 -0.54203551 4.96197585 -2 4.8125 C-3.21816406 4.69068359 -3.21816406 4.69068359 -4.4609375 4.56640625 C-6.625 4.25 -6.625 4.25 -8.625 3.25 C-9.95360925 2.89830932 -11.28658328 2.56229724 -12.625 2.25 C-8.34005361 0.16543148 -4.73483057 -0.01867783 0 0 Z " fill="#42CACA" transform="translate(617.625,126.75)"/>
<path d="M0 0 C0.66 0.33 1.32 0.66 2 1 C1.98839844 1.80824219 1.97679687 2.61648437 1.96484375 3.44921875 C1.95582031 4.51785156 1.94679687 5.58648437 1.9375 6.6875 C1.92589844 7.74324219 1.91429687 8.79898438 1.90234375 9.88671875 C1.99134575 12.72410262 2.35060162 15.2438919 3 18 C1.125 17.8125 1.125 17.8125 -1 17 C-2.40596898 14.52281656 -3.19244252 12.93719506 -2.609375 10.09765625 C-2.40828125 9.40542969 -2.2071875 8.71320313 -2 8 C-1.82339844 7.29359375 -1.64679688 6.5871875 -1.46484375 5.859375 C-0.9765625 3.90625 -0.48828125 1.953125 0 0 Z " fill="#24867A" transform="translate(172,105)"/>
<path d="M0 0 C1.65 1.32 3.3 2.64 5 4 C-1.23664375 8.53574091 -6.43801103 8.44701413 -14 8 C-14 7.67 -14 7.34 -14 7 C-12.88625 6.87625 -11.7725 6.7525 -10.625 6.625 C-6.96896323 6.3534187 -6.96896323 6.3534187 -5 4 C-4.319375 3.67 -3.63875 3.34 -2.9375 3 C-0.83134399 2.15410058 -0.83134399 2.15410058 0 0 Z " fill="#40DEDE" transform="translate(684,156)"/>
<path d="M0 0 C5.98954705 2.48347073 10.91535492 6.46141457 14.2265625 12.08203125 C15.1828205 14.45335791 14.84513892 15.63361103 14 18 C13.62875 16.865625 13.2575 15.73125 12.875 14.5625 C12.13362127 12.6185869 12.13362127 12.6185869 11 11 C7.91630113 9.94250443 7.91630113 9.94250443 5 10 C5.66 9.67 6.32 9.34 7 9 C7 8.01 7 7.02 7 6 C6.01 5.67 5.02 5.34 4 5 C4 4.34 4 3.68 4 3 C2.68 2.67 1.36 2.34 0 2 C0 1.34 0 0.68 0 0 Z " fill="#238373" transform="translate(308,138)"/>
<path d="M0 0 C0.89203125 0.00902344 1.7840625 0.01804687 2.703125 0.02734375 C3.37859375 0.03894531 4.0540625 0.05054687 4.75 0.0625 C4.75 1.3825 4.75 2.7025 4.75 4.0625 C-0.2 4.0625 -5.15 4.0625 -10.25 4.0625 C-9.92 3.0725 -9.59 2.0825 -9.25 1.0625 C-6.21826719 -0.13243974 -3.22540573 -0.04243955 0 0 Z " fill="#22F3F4" transform="translate(726.25,127.9375)"/>
<path d="M0 0 C1.65 0 3.3 0 5 0 C4.67 2.97 4.34 5.94 4 9 C2.35 9 0.7 9 -1 9 C-1.66 7.35 -2.32 5.7 -3 4 C-2.01 3.67 -1.02 3.34 0 3 C0 2.01 0 1.02 0 0 Z " fill="#1CF0ED" transform="translate(224,180)"/>
<path d="M0 0 C0.75 1.625 0.75 1.625 1 4 C-1.64447758 8.88211245 -4.89023564 12.99142778 -10.3125 14.75 C-11.1478125 14.87375 -11.1478125 14.87375 -12 15 C-12.33 14.01 -12.66 13.02 -13 12 C-11.68 12.33 -10.36 12.66 -9 13 C-8.67 12.01 -8.34 11.02 -8 10 C-7.01 10 -6.02 10 -5 10 C-5 9.01 -5 8.02 -5 7 C-4.34 7 -3.68 7 -3 7 C-3 6.01 -3 5.02 -3 4 C-2.34 4 -1.68 4 -1 4 C-0.67 2.68 -0.34 1.36 0 0 Z " fill="#30B2AB" transform="translate(520,160)"/>
<path d="M0 0 C6.72 0.72 6.72 0.72 8 2 C8.04092937 4.33297433 8.04241723 6.66705225 8 9 C6.68 9 5.36 9 4 9 C4.66 7.35 5.32 5.7 6 4 C4.02 4.33 2.04 4.66 0 5 C-0.5625 3.0625 -0.5625 3.0625 -1 1 C-0.67 0.67 -0.34 0.34 0 0 Z " fill="#138878" transform="translate(310,110)"/>
<path d="M0 0 C3.3 0 6.6 0 10 0 C8.68 0.33 7.36 0.66 6 1 C6.33 1.99 6.66 2.98 7 4 C9.97 4.33 12.94 4.66 16 5 C16 5.33 16 5.66 16 6 C9.86946489 6.32712342 5.37330889 6.39366878 0 3 C0 2.01 0 1.02 0 0 Z " fill="#41D4D1" transform="translate(208,210)"/>
<path d="M0 0 C2.48956012 3.73434018 2.64412758 6.67514342 2 11 C-0.6835443 18.34177215 -0.6835443 18.34177215 -4 20 C-4 18.35 -4 16.7 -4 15 C-3.34 15 -2.68 15 -2 15 C-2 14.01 -2 13.02 -2 12 C-1.34 12 -0.68 12 0 12 C0 8.04 0 4.08 0 0 Z " fill="#41DBD9" transform="translate(693,139)"/>
<path d="M0 0 C2.97 0.495 2.97 0.495 6 1 C6 1.66 6 2.32 6 3 C6.99 3 7.98 3 9 3 C9 3.66 9 4.32 9 5 C8.34 5 7.68 5 7 5 C7.33 7.31 7.66 9.62 8 12 C6 11 6 11 5.125 8.6875 C3.8769353 5.70601211 2.297829 4.2212347 0 2 C0 1.34 0 0.68 0 0 Z " fill="#29D7D8" transform="translate(623,131)"/>
<path d="M0 0 C0.66 0.99 1.32 1.98 2 3 C2.556875 3.78375 3.11375 4.5675 3.6875 5.375 C5.23436771 8.46873543 5.01683263 9.76462345 4 13 C3.01 13 2.02 13 1 13 C1 12.34 1 11.68 1 11 C-0.32 10.67 -1.64 10.34 -3 10 C-2.01 9.67 -1.02 9.34 0 9 C0 6.03 0 3.06 0 0 Z " fill="#259E95" transform="translate(427,164)"/>
<path d="M0 0 C1.32 0.66 2.64 1.32 4 2 C-3.4671045 6.31090569 -9.29015546 9.04055665 -18 8 C-14.88089144 6.20724134 -12.32317572 5.65709282 -8.75 5.375 C-7.85796875 5.30023438 -6.9659375 5.22546875 -6.046875 5.1484375 C-5.37140625 5.09945312 -4.6959375 5.05046875 -4 5 C-4 4.34 -4 3.68 -4 3 C-2.68 3 -1.36 3 0 3 C0 2.01 0 1.02 0 0 Z " fill="#39C5C0" transform="translate(200,162)"/>
<path d="M0 0 C0.66 0 1.32 0 2 0 C1.96519531 0.68707031 1.93039063 1.37414062 1.89453125 2.08203125 C1.86746094 2.98308594 1.84039062 3.88414062 1.8125 4.8125 C1.77769531 5.70582031 1.74289063 6.59914062 1.70703125 7.51953125 C1.80378598 10.02071339 1.80378598 10.02071339 3.25390625 11.7890625 C5.32462792 13.22513346 6.62690975 13.4196203 9.125 13.5625 C10.40375 13.706875 11.6825 13.85125 13 14 C13.33 14.66 13.66 15.32 14 16 C8.31379141 16.19607616 5.6882672 15.89608907 0 14 C0 9.38 0 4.76 0 0 Z " fill="#27866F" transform="translate(138,188)"/>
<path d="M0 0 C1.74991334 -0.02715383 3.49994945 -0.04646551 5.25 -0.0625 C6.71179688 -0.07990234 6.71179688 -0.07990234 8.203125 -0.09765625 C10.6853881 -0.01098505 12.67377043 0.14881145 15 1 C17.30238787 4.91405938 17.17461992 8.54719212 17 13 C16.34 13 15.68 13 15 13 C14.89042969 12.37351563 14.78085938 11.74703125 14.66796875 11.1015625 C14.50941406 10.28429687 14.35085937 9.46703125 14.1875 8.625 C14.03667969 7.81289062 13.88585937 7.00078125 13.73046875 6.1640625 C13.12455058 3.64179359 13.12455058 3.64179359 10 2 C7.49103314 1.54398739 7.49103314 1.54398739 4.8125 1.375 C3.91144531 1.30023438 3.01039063 1.22546875 2.08203125 1.1484375 C1.39496094 1.09945312 0.70789063 1.05046875 0 1 C0 0.67 0 0.34 0 0 Z " fill="#42E3E4" transform="translate(212,188)"/>
<path d="M0 0 C0.66 0 1.32 0 2 0 C2 0.99 2 1.98 2 3 C2.66 3 3.32 3 4 3 C4 9.6 4 16.2 4 23 C3.01 23.33 2.02 23.66 1 24 C1.16113281 23.28457031 1.32226562 22.56914062 1.48828125 21.83203125 C2.84285512 14.33534383 2.18717306 7.24501076 0 0 Z " fill="#3CD2CF" transform="translate(631,144)"/>
<path d="M0 0 C4.62 0 9.24 0 14 0 C10 4 10 4 7.7109375 4.13671875 C6.94007813 3.98847656 6.16921875 3.84023437 5.375 3.6875 C2.07805754 2.96190757 2.07805754 2.96190757 -1 4 C-0.67 2.68 -0.34 1.36 0 0 Z " fill="#28ACA3" transform="translate(174,155)"/>
<path d="M0 0 C0.66 0.33 1.32 0.66 2 1 C1.25 3.4375 1.25 3.4375 0 6 C-3.3338092 7.29648136 -6.71453202 7.100929 -10.25 7.0625 C-11.32765625 7.05347656 -12.4053125 7.04445312 -13.515625 7.03515625 C-14.33546875 7.02355469 -15.1553125 7.01195312 -16 7 C-16 6.67 -16 6.34 -16 6 C-12.7 6 -9.4 6 -6 6 C-6 5.34 -6 4.68 -6 4 C-4.03852126 2.61061923 -2.03833424 1.2739589 0 0 Z " fill="#24B2AB" transform="translate(504,132)"/>
<path d="M0 0 C3.96 0 7.92 0 12 0 C12.33 0.99 12.66 1.98 13 3 C10.01405576 4.49297212 7.29146376 4.11755228 4 4 C3.34 3.67 2.68 3.34 2 3 C2 2.34 2 1.68 2 1 C1.34 0.67 0.68 0.34 0 0 Z " fill="#21D8D6" transform="translate(611,173)"/>
<path d="M0 0 C4 6 4 6 4 10 C5.98 9.67 7.96 9.34 10 9 C10 9.66 10 10.32 10 11 C9.34 11 8.68 11 8 11 C8 12.32 8 13.64 8 15 C7.34 15 6.68 15 6 15 C2.14658603 10.37830412 0.37165567 5.94649079 0 0 Z " fill="#3DE4E7" transform="translate(702,155)"/>
<path d="M0 0 C2.64 0 5.28 0 8 0 C7.50168276 3.68754757 6.89932357 5.60490662 4 8 C4 6.35 4 4.7 4 3 C2.68 3.33 1.36 3.66 0 4 C0 2.68 0 1.36 0 0 Z " fill="#42ECED" transform="translate(743,160)"/>
<path d="M0 0 C0.66 0.33 1.32 0.66 2 1 C0.046875 3.24609375 0.046875 3.24609375 -1.90625 5.4921875 C-3.19572458 6.95936421 -3.19572458 6.95936421 -3 9 C-3.99 9 -4.98 9 -6 9 C-6 8.34 -6 7.68 -6 7 C-7.98 7 -9.96 7 -12 7 C-9.62905601 5.41937067 -7.4213606 4.17309564 -4.875 2.9375 C-2.24526174 1.74120952 -2.24526174 1.74120952 0 0 Z " fill="#33CCC7" transform="translate(200,148)"/>
<path d="M0 0 C0.33 0 0.66 0 1 0 C1.33 2.31 1.66 4.62 2 7 C2.61359375 7.08121094 3.2271875 7.16242188 3.859375 7.24609375 C6 8 6 8 7.265625 9.84765625 C7.59046875 10.57855469 7.9153125 11.30945313 8.25 12.0625 C8.58515625 12.79597656 8.9203125 13.52945313 9.265625 14.28515625 C9.50796875 14.85105469 9.7503125 15.41695312 10 16 C5.28781932 13.91016294 2.32769977 10.65539954 0 6 C-0.039992 4.00039988 -0.04346799 1.99952758 0 0 Z " fill="#227566" transform="translate(272,121)"/>
<path d="M0 0 C1.69141656 0.08963062 3.37959602 0.24577676 5.0625 0.4375 C6.44115234 0.59025391 6.44115234 0.59025391 7.84765625 0.74609375 C8.55792969 0.82988281 9.26820313 0.91367188 10 1 C6.6615409 3.70705488 4.29625631 4.51178906 0 5 C-0.5625 3.0625 -0.5625 3.0625 -1 1 C-0.67 0.67 -0.34 0.34 0 0 Z " fill="#26B0A9" transform="translate(173,202)"/>
<path d="M0 0 C2.70956113 1.96209599 3.43840585 3.74275395 4 7 C3.34 7 2.68 7 2 7 C1.67 6.01 1.34 5.02 1 4 C0.01 3.67 -0.98 3.34 -2 3 C-2 2.34 -2 1.68 -2 1 C-3.65 1 -5.3 1 -7 1 C-7 1.66 -7 2.32 -7 3 C-7.66 3 -8.32 3 -9 3 C-9 3.66 -9 4.32 -9 5 C-9.66 5 -10.32 5 -11 5 C-10.65660347 2.42452602 -10.39993284 1.31105887 -8.3125 -0.3125 C-5.18294924 -1.24290698 -3.12833137 -0.86528315 0 0 Z " fill="#3DBEB8" transform="translate(580,110)"/>
<path d="M0 0 C2.475 0.99 2.475 0.99 5 2 C5.02689216 3.47906892 5.04634621 4.95827483 5.0625 6.4375 C5.07410156 7.26121094 5.08570313 8.08492187 5.09765625 8.93359375 C5 11 5 11 4 12 C2.00041636 12.04080783 -0.00045254 12.04254356 -2 12 C-2.66 10.68 -3.32 9.36 -4 8 C-3.01 8 -2.02 8 -1 8 C-1 8.66 -1 9.32 -1 10 C0.65 10 2.3 10 4 10 C3.67495741 5.17805357 3.67495741 5.17805357 1.4375 1.0625 C0.963125 0.711875 0.48875 0.36125 0 0 Z " fill="#2D796F" transform="translate(314,109)"/>
<path d="M0 0 C1.98 0.495 1.98 0.495 4 1 C3.34 4.3 2.68 7.6 2 11 C-1 8 -1 8 -1.25 4.375 C-1 1 -1 1 0 0 Z " fill="#158A7C" transform="translate(169,103)"/>
<path d="M0 0 C2.24666134 3.36999202 2.2457371 4.56105462 2.1875 8.5 C2.17783203 9.93859375 2.17783203 9.93859375 2.16796875 11.40625 C2 14 2 14 1 17 C-0.32 16.34 -1.64 15.68 -3 15 C-2.67 14.34 -2.34 13.68 -2 13 C-1.34 13 -0.68 13 0 13 C0 8.71 0 4.42 0 0 Z " fill="#3DF0F2" transform="translate(236,187)"/>
<path d="M0 0 C0.66 0 1.32 0 2 0 C0.58795406 5.26308032 -1.68991307 8.7562988 -5 13 C-5.33 13 -5.66 13 -6 13 C-6 11.35 -6 9.7 -6 8 C-5.34 8 -4.68 8 -4 8 C-3.67 6.35 -3.34 4.7 -3 3 C-2.01 3 -1.02 3 0 3 C0 2.01 0 1.02 0 0 Z " fill="#3FE6E3" transform="translate(215,146)"/>
<path d="M0 0 C0.88336837 2.4667645 1.1312406 3.63859372 0.22265625 6.140625 C-0.16019531 6.83671875 -0.54304688 7.5328125 -0.9375 8.25 C-1.31777344 8.95640625 -1.69804687 9.6628125 -2.08984375 10.390625 C-2.39019531 10.92171875 -2.69054687 11.4528125 -3 12 C-1.35 12 0.3 12 2 12 C0.1875 13.0625 0.1875 13.0625 -2 14 C-2.99 13.67 -3.98 13.34 -5 13 C-4.39254603 8.14036821 -2.27241033 4.2594482 0 0 Z " fill="#33A099" transform="translate(467,163)"/>
<path d="M0 0 C0.33 0.99 0.66 1.98 1 3 C2.65 3 4.3 3 6 3 C6.0825 3.61875 6.165 4.2375 6.25 4.875 C6.81258459 7.18437567 6.81258459 7.18437567 9.0625 8.25 C9.701875 8.4975 10.34125 8.745 11 9 C6.90114782 9.47661072 5.44069635 9.3448928 2.125 6.75 C0 4 0 4 0 0 Z " fill="#31C3BD" transform="translate(568,115)"/>
<path d="M0 0 C0.33 0.99 0.66 1.98 1 3 C-0.62414378 3.19477739 -2.24936423 3.38059458 -3.875 3.5625 C-4.77992188 3.66691406 -5.68484375 3.77132812 -6.6171875 3.87890625 C-9 4 -9 4 -11 3 C-11 2.34 -11 1.68 -11 1 C-7.32589215 -0.17571451 -3.83070817 -0.07366746 0 0 Z " fill="#189186" transform="translate(154,177)"/>
<path d="M0 0 C0.33 0 0.66 0 1 0 C1.144375 1.11375 1.28875 2.2275 1.4375 3.375 C1.78372035 6.82142047 1.78372035 6.82142047 3 9 C1.35 9.33 -0.3 9.66 -2 10 C-3.05236973 6.65155086 -3.20005388 5.40920111 -1.625 2.1875 C-1.08875 1.465625 -0.5525 0.74375 0 0 Z " fill="#2B958E" transform="translate(414,167)"/>
<path d="M0 0 C0.33 0 0.66 0 1 0 C1.125 5.75 1.125 5.75 0 8 C-0.66 8 -1.32 8 -2 8 C-2 8.66 -2 9.32 -2 10 C-0.35 10.33 1.3 10.66 3 11 C0 13 0 13 -2.1875 12.625 C-2.785625 12.41875 -3.38375 12.2125 -4 12 C-3.33501617 7.61110675 -1.81242323 4.0188515 0 0 Z " fill="#339B92" transform="translate(440,164)"/>
<path d="M0 0 C0.99 0.33 1.98 0.66 3 1 C1.75023244 4.65316671 1.32901247 5.78065836 -2 8 C-2.66 7.67 -3.32 7.34 -4 7 C-4 5.68 -4 4.36 -4 3 C-3.01 2.67 -2.02 2.34 -1 2 C-0.67 1.34 -0.34 0.68 0 0 Z " fill="#1CF4F4" transform="translate(714,163)"/>
<path d="M0 0 C3.21852831 0.63065757 5.50801069 1.78020695 8.25 3.5625 C8.95640625 4.01753906 9.6628125 4.47257813 10.390625 4.94140625 C11.18726563 5.46541016 11.18726563 5.46541016 12 6 C8.69538587 7.10153804 8.01331168 6.95317786 4.875 5.8125 C4.17117187 5.57144531 3.46734375 5.33039063 2.7421875 5.08203125 C1 4 1 4 0.2578125 1.88671875 C0.17273438 1.26410156 0.08765625 0.64148438 0 0 Z " fill="#259487" transform="translate(160,146)"/>
<path d="M0 0 C4.62 0 9.24 0 14 0 C14 0.33 14 0.66 14 1 C10.37 1 6.74 1 3 1 C3.33 3.64 3.66 6.28 4 9 C0 4.5 0 4.5 0 0 Z " fill="#248171" transform="translate(328,106)"/>
<path d="M0 0 C0.99 0.33 1.98 0.66 3 1 C3 4 3 7 3 10 C2.01 10.33 1.02 10.66 0 11 C-0.19406478 9.35492782 -0.38007935 7.70890406 -0.5625 6.0625 C-0.66691406 5.14597656 -0.77132812 4.22945313 -0.87890625 3.28515625 C-0.91886719 2.53105469 -0.95882812 1.77695313 -1 1 C-0.67 0.67 -0.34 0.34 0 0 Z " fill="#19B5AC" transform="translate(180,87)"/>
<path d="M0 0 C0.66 0.66 1.32 1.32 2 2 C1.9375 5 1.9375 5 1 8 C-1.5625 9.375 -1.5625 9.375 -4 10 C-4.33 8.35 -4.66 6.7 -5 5 C-3.35 4.67 -1.7 4.34 0 4 C0 2.68 0 1.36 0 0 Z " fill="#15C4BE" transform="translate(190,189)"/>
<path d="M0 0 C2.64 0.33 5.28 0.66 8 1 C8.33 1.99 8.66 2.98 9 4 C7.824375 3.9690625 7.824375 3.9690625 6.625 3.9375 C4.01885039 3.81315937 4.01885039 3.81315937 2 5 C-0.125 4.0625 -0.125 4.0625 -2 3 C-1.34 3 -0.68 3 0 3 C0 2.01 0 1.02 0 0 Z " fill="#137F6D" transform="translate(281,168)"/>
<path d="M0 0 C-0.928125 0.4021875 -0.928125 0.4021875 -1.875 0.8125 C-4.2995233 1.95556848 -4.2995233 1.95556848 -6 5 C-9.875 1.25 -9.875 1.25 -11 -1 C-3.57142857 -2.42857143 -3.57142857 -2.42857143 0 0 Z " fill="#24887B" transform="translate(359,148)"/>
<path d="M0 0 C2.1519437 3.22791555 2.20086443 4.28400809 2 8 C0.35 7.67 -1.3 7.34 -3 7 C-3.1875 4.625 -3.1875 4.625 -3 2 C-2.01 1.34 -1.02 0.68 0 0 Z " fill="#2EEAE9" transform="translate(197,107)"/>
<path d="M0 0 C0.33 0 0.66 0 1 0 C1.07347656 1.17369141 1.07347656 1.17369141 1.1484375 2.37109375 C1.22320312 3.38300781 1.29796875 4.39492187 1.375 5.4375 C1.44460937 6.44683594 1.51421875 7.45617187 1.5859375 8.49609375 C1.72257813 9.32238281 1.85921875 10.14867188 2 11 C2.66 11.33 3.32 11.66 4 12 C2.68 12 1.36 12 0 12 C0 11.34 0 10.68 0 10 C-0.66 9.67 -1.32 9.34 -2 9 C-1.855625 8.443125 -1.71125 7.88625 -1.5625 7.3125 C-0.97230872 4.88615805 -0.476571 2.45093655 0 0 Z " fill="#20BEB9" transform="translate(183,87)"/>
<path d="M0 0 C0.33 0 0.66 0 1 0 C1.36 5.4 1.36 5.4 -0.125 7.875 C-2.78034983 9.4682099 -4.96789518 9.20214032 -8 9 C-6.8553125 8.1646875 -6.8553125 8.1646875 -5.6875 7.3125 C-3.03568819 5.03070844 -1.68044905 3.02480829 0 0 Z " fill="#3BE3E1" transform="translate(226,201)"/>
<path d="M0 0 C-0.99 1.32 -1.98 2.64 -3 4 C-4.65 3.67 -6.3 3.34 -8 3 C-8 2.01 -8 1.02 -8 0 C-4.94736336 -0.98120464 -3.05263664 -0.98120464 0 0 Z " fill="#1FE5E1" transform="translate(222,211)"/>
<path d="M0 0 C0.99 0.66 1.98 1.32 3 2 C2.67 3.65 2.34 5.3 2 7 C-1.63 6.67 -5.26 6.34 -9 6 C-9 5.67 -9 5.34 -9 5 C-6.03 5 -3.06 5 0 5 C0 3.35 0 1.7 0 0 Z " fill="#33BCB9" transform="translate(546,170)"/>
<path d="M0 0 C0.7425 0.763125 1.485 1.52625 2.25 2.3125 C5.72930131 5.71272628 8.63664245 7.81832122 13 10 C10.03 9.67 7.06 9.34 4 9 C3.67 8.01 3.34 7.02 3 6 C2.34 5.67 1.68 5.34 1 5 C0.375 2.4375 0.375 2.4375 0 0 Z " fill="#3CCCC9" transform="translate(608,164)"/>
<path d="M0 0 C-1.65 1.65 -3.3 3.3 -5 5 C-5.33 4.01 -5.66 3.02 -6 2 C-7.65 2 -9.3 2 -11 2 C-7.75267347 -1.24732653 -4.25451414 -1.41817138 0 0 Z " fill="#30CAC6" transform="translate(612,130)"/>
<path d="M0 0 C0.66 0 1.32 0 2 0 C2.66 0.66 3.32 1.32 4 2 C4.66 1.67 5.32 1.34 6 1 C7.125 2.75 7.125 2.75 8 5 C7.0546875 7.140625 7.0546875 7.140625 6 9 C4.99712471 7.68969568 3.99777175 6.37669473 3 5.0625 C2.443125 4.33160156 1.88625 3.60070312 1.3125 2.84765625 C0 1 0 1 0 0 Z " fill="#238B7F" transform="translate(354,153)"/>
<path d="M0 0 C0.33 1.32 0.66 2.64 1 4 C0.01 4 -0.98 4 -2 4 C-2 4.66 -2 5.32 -2 6 C-1.01 6.33 -0.02 6.66 1 7 C0.67 7.66 0.34 8.32 0 9 C-0.66 9 -1.32 9 -2 9 C-2 8.34 -2 7.68 -2 7 C-3.65 6.67 -5.3 6.34 -7 6 C-6.01 5.67 -5.02 5.34 -4 5 C-2.61423077 3.37667033 -1.27358732 1.71275535 0 0 Z " fill="#3AE3E4" transform="translate(688,123)"/>
<path d="M0 0 C1.98 0 3.96 0 6 0 C6 0.66 6 1.32 6 2 C10.29 2 14.58 2 19 2 C19 2.33 19 2.66 19 3 C16.58265458 3.08117951 14.16805051 3.14056926 11.75 3.1875 C11.06808594 3.21263672 10.38617188 3.23777344 9.68359375 3.26367188 C6.40800711 3.31137459 4.34651444 3.21085076 1.515625 1.48828125 C1.01546875 0.99714844 0.5153125 0.50601563 0 0 Z " fill="#2E877E" transform="translate(138,213)"/>
<path d="M0 0 C0.66 0.33 1.32 0.66 2 1 C1.67 2.65 1.34 4.3 1 6 C-1.97 6 -4.94 6 -8 6 C-7.67 5.34 -7.34 4.68 -7 4 C-4.69 4 -2.38 4 0 4 C0 2.68 0 1.36 0 0 Z " fill="#3CC4C0" transform="translate(585,171)"/>
<path d="M0 0 C1.12733524 3.94567332 1.32234763 7.03295711 0 11 C-1.32 10.34 -2.64 9.68 -4 9 C-2.80100302 5.9168649 -1.52299523 2.93720508 0 0 Z " fill="#31B6B0" transform="translate(530,166)"/>
<path d="M0 0 C0.89138672 0.45246094 0.89138672 0.45246094 1.80078125 0.9140625 C3.57083233 1.78808417 5.37487695 2.59308417 7.1875 3.375 C10 5 10 5 10.875 7.1875 C10.936875 8.0846875 10.936875 8.0846875 11 9 C5.70841026 7.59928507 3.22521956 4.14512755 0 0 Z " fill="#2B8C80" transform="translate(154,156)"/>
<path d="M0 0 C2.97 0.495 2.97 0.495 6 1 C6 1.66 6 2.32 6 3 C7.65 3 9.3 3 11 3 C11.33 3.66 11.66 4.32 12 5 C11.34 5.66 10.68 6.32 10 7 C8.33073546 6.02526874 6.66464358 5.04510211 5 4.0625 C4.071875 3.51722656 3.14375 2.97195312 2.1875 2.41015625 C1.465625 1.94480469 0.74375 1.47945312 0 1 C0 0.67 0 0.34 0 0 Z " fill="#227264" transform="translate(282,137)"/>
<path d="M0 0 C1.32 0.66 2.64 1.32 4 2 C4 2.66 4 3.32 4 4 C4.31478446 5.33783393 4.64587656 6.67203709 5 8 C4.01 8.495 4.01 8.495 3 9 C1.68 6.36 0.36 3.72 -1 1 C-0.67 0.67 -0.34 0.34 0 0 Z " fill="#1D6E62" transform="translate(129,201)"/>
<path d="M0 0 C1.65 0 3.3 0 5 0 C1.87511433 2.52394612 -1.31314387 4.39701907 -5 6 C-5.66 5.67 -6.32 5.34 -7 5 C-6.34 4.01 -5.68 3.02 -5 2 C-2.375 1.8125 -2.375 1.8125 0 2 C0 1.34 0 0.68 0 0 Z " fill="#3ABBB8" transform="translate(194,195)"/>
<path d="M0 0 C0 0.66 0 1.32 0 2 C-0.66 2 -1.32 2 -2 2 C-2 3.32 -2 4.64 -2 6 C-2.66 6 -3.32 6 -4 6 C-4.33 6.66 -4.66 7.32 -5 8 C-5 7.01 -5 6.02 -5 5 C-5.99 4.34 -6.98 3.68 -8 3 C-2.25 0 -2.25 0 0 0 Z " fill="#2EBFBC" transform="translate(194,183)"/>
<path d="M0 0 C0.33 1.65 0.66 3.3 1 5 C-0.65 5 -2.3 5 -4 5 C-4 4.34 -4 3.68 -4 3 C-4.99 3 -5.98 3 -7 3 C-7 2.34 -7 1.68 -7 1 C-4 0 -4 0 0 0 Z " fill="#21B4AB" transform="translate(506,170)"/>
<path d="M0 0 C0.66 0.66 1.32 1.32 2 2 C1.875 5.5 1.875 5.5 1 9 C-1.0625 10.4375 -1.0625 10.4375 -3 11 C-3 10.01 -3 9.02 -3 8 C-2.01 8 -1.02 8 0 8 C0 5.36 0 2.72 0 0 Z " fill="#309087" transform="translate(401,112)"/>
<path d="M0 0 C0.99 0 1.98 0 3 0 C2.67 1.65 2.34 3.3 2 5 C1.34 5 0.68 5 0 5 C0 5.66 0 6.32 0 7 C-0.66 7 -1.32 7 -2 7 C-1.125 2.25 -1.125 2.25 0 0 Z " fill="#158474" transform="translate(155,113)"/>
<path d="M0 0 C0.33 1.32 0.66 2.64 1 4 C2.98 4 4.96 4 7 4 C6.67 4.66 6.34 5.32 6 6 C4.02 6 2.04 6 0 6 C-0.38218767 4.34385343 -0.71395102 2.67542976 -1 1 C-0.67 0.67 -0.34 0.34 0 0 Z " fill="#309C8B" transform="translate(388,171)"/>
<path d="M0 0 C1.5625 1.1875 1.5625 1.1875 3 3 C2.6875 5.6875 2.6875 5.6875 2 8 C0.68 7.34 -0.64 6.68 -2 6 C-1.34 4.02 -0.68 2.04 0 0 Z " fill="#26867A" transform="translate(347,169)"/>
<path d="M0 0 C1.9375 0.75 1.9375 0.75 4 2 C4.75 4.125 4.75 4.125 5 6 C3.125 5.75 3.125 5.75 1 5 C-0.25 2.9375 -0.25 2.9375 -1 1 C-0.67 0.67 -0.34 0.34 0 0 Z " fill="#1C9D8D" transform="translate(164,161)"/>
<path d="M0 0 C5.20112114 2.1772135 7.68090651 4.60708214 11 9 C8.50638429 7.79618552 6.31856917 6.54571278 4 5 C4 4.34 4 3.68 4 3 C2.68 2.67 1.36 2.34 0 2 C0 1.34 0 0.68 0 0 Z " fill="#27796D" transform="translate(308,138)"/>
<path d="M0 0 C2.31 0.66 4.62 1.32 7 2 C6.34 3.65 5.68 5.3 5 7 C3 6 3 6 2 3 C1.34 2.67 0.68 2.34 0 2 C0 1.34 0 0.68 0 0 Z " fill="#2FC6C1" transform="translate(576,116)"/>
<path d="M0 0 C0.66 0.33 1.32 0.66 2 1 C1.38125 1.556875 0.7625 2.11375 0.125 2.6875 C-2.06106379 5.06645178 -2.98785699 6.96357096 -4 10 C-4.66 9.67 -5.32 9.34 -6 9 C-4.68775452 5.06326356 -3.08089673 2.77280706 0 0 Z " fill="#257366" transform="translate(279,111)"/>
<path d="M0 0 C0.66 0 1.32 0 2 0 C3.1577506 3.47325181 3.06866652 6.36067448 3 10 C2.67 9.01 2.34 8.02 2 7 C1.34 7 0.68 7 0 7 C0 4.69 0 2.38 0 0 Z " fill="#25F7F8" transform="translate(196,100)"/>
<path d="M0 0 C2.99324263 1.0975223 3.84610901 1.67682892 5.25 4.625 C5.4975 5.40875 5.745 6.1925 6 7 C5.34 7 4.68 7 4 7 C3.67 6.34 3.34 5.68 3 5 C2.01 4.67 1.02 4.34 0 4 C0 2.68 0 1.36 0 0 Z " fill="#40E8EC" transform="translate(230,180)"/>
<path d="M0 0 C1 2 1 2 1 6 C0.34 6 -0.32 6 -1 6 C-1 7.32 -1 8.64 -1 10 C-1.66 10 -2.32 10 -3 10 C-2.25 3.375 -2.25 3.375 0 0 Z " fill="#42D6D2" transform="translate(656,163)"/>
<path d="M0 0 C1.70884005 1.62339805 3.37446717 3.29319053 5 5 C5 5.66 5 6.32 5 7 C2.13275314 6.42655063 1.1385485 6.1385485 -1 4 C-0.34 4 0.32 4 1 4 C0.67 2.68 0.34 1.36 0 0 Z " fill="#39E3E3" transform="translate(688,132)"/>
<path d="M0 0 C0.33 0 0.66 0 1 0 C1 1.65 1 3.3 1 5 C2.65 4.67 4.3 4.34 6 4 C5.67 5.65 5.34 7.3 5 9 C1.125 7.125 1.125 7.125 0 6 C-0.04080783 4.00041636 -0.04254356 1.99954746 0 0 Z " fill="#269388" transform="translate(388,114)"/>
<path d="M0 0 C2.50298434 2.93828597 3.46930939 5.17902761 4 9 C3.01 9.33 2.02 9.66 1 10 C0.34 9.34 -0.32 8.68 -1 8 C-0.01 8 0.98 8 2 8 C1.67 7.4225 1.34 6.845 1 6.25 C0 4 0 4 0 0 Z " fill="#368E89" transform="translate(403,167)"/>
<path d="M0 0 C0 0.99 0 1.98 0 3 C-1.98 3 -3.96 3 -6 3 C-6.33 2.01 -6.66 1.02 -7 0 C-3.86650268 -1.04449911 -3.01031744 -0.93423645 0 0 Z " fill="#119F76" transform="translate(383,174)"/>
<path d="M0 0 C5.75 4.75 5.75 4.75 8 7 C2.25 6.25 2.25 6.25 0 4 C0 2.68 0 1.36 0 0 Z " fill="#38E1E1" transform="translate(669,154)"/>
<path d="M0 0 C2.64 0.33 5.28 0.66 8 1 C7.01 1.495 7.01 1.495 6 2 C6 2.66 6 3.32 6 4 C4.68 3.67 3.36 3.34 2 3 C2 2.34 2 1.68 2 1 C1.34 0.67 0.68 0.34 0 0 Z " fill="#17DED8" transform="translate(205,184)"/>
<path d="M0 0 C1.32 0.66 2.64 1.32 4 2 C4 2.66 4 3.32 4 4 C0.7 4.33 -2.6 4.66 -6 5 C-6 4.34 -6 3.68 -6 3 C-3.69 3 -1.38 3 1 3 C0.67 2.01 0.34 1.02 0 0 Z " fill="#32837C" transform="translate(154,177)"/>
<path d="M0 0 C0.33 0.99 0.66 1.98 1 3 C1.66 3.33 2.32 3.66 3 4 C0.69 4.66 -1.62 5.32 -4 6 C-4 5.01 -4 4.02 -4 3 C-3.01 2.67 -2.02 2.34 -1 2 C-0.67 1.34 -0.34 0.68 0 0 Z " fill="#27DAD7" transform="translate(635,165)"/>
<path d="M0 0 C0.99 0 1.98 0 3 0 C3 1.65 3 3.3 3 5 C2.34 5 1.68 5 1 5 C0.01 5.495 0.01 5.495 -1 6 C-1.042721 4.33388095 -1.04063832 2.66617115 -1 1 C-0.67 0.67 -0.34 0.34 0 0 Z " fill="#24FAFB" transform="translate(744,163)"/>
<path d="M0 0 C-1.6875 1.625 -1.6875 1.625 -4 3 C-6.75 2.1875 -6.75 2.1875 -9 1 C-9 0.67 -9 0.34 -9 0 C-2.25 -1.125 -2.25 -1.125 0 0 Z " fill="#22BCB2" transform="translate(188,156)"/>
<path d="M0 0 C0.6875 1.75 0.6875 1.75 1 4 C-0.3125 6.25 -0.3125 6.25 -2 8 C-2.66 8 -3.32 8 -4 8 C-2.25 2.25 -2.25 2.25 0 0 Z " fill="#40E1E2" transform="translate(707,136)"/>
<path d="M0 0 C1.32 0 2.64 0 4 0 C4.33 1.98 4.66 3.96 5 6 C3.2925002 4.71937515 1.62626404 3.38232443 0 2 C0 1.34 0 0.68 0 0 Z " fill="#17DBD4" transform="translate(623,131)"/>
<path d="M0 0 C1.65 0 3.3 0 5 0 C5 1.65 5 3.3 5 5 C3.68 4.67 2.36 4.34 1 4 C0.67 2.68 0.34 1.36 0 0 Z " fill="#29E4E2" transform="translate(675,128)"/>
<path d="M0 0 C2.40072955 2.88087546 4.47291037 5.56404834 6 9 C5.01 9 4.02 9 3 9 C0 3.375 0 3.375 0 0 Z " fill="#298479" transform="translate(156,137)"/>
</svg>
